<svg width="1541" height="839" viewBox="0 0 1541 839" fill="none" xmlns="http://www.w3.org/2000/svg">
<circle cx="243.24" cy="717.637" r="3.52358" transform="rotate(-180 243.24 717.637)" fill="#70C217"/>
<circle cx="191.561" cy="717.637" r="3.52358" transform="rotate(-180 191.561 717.637)" fill="#70C217"/>
<circle cx="139.882" cy="717.637" r="3.52358" transform="rotate(-180 139.882 717.637)" fill="#70C217"/>
<circle cx="88.2025" cy="717.637" r="3.52358" transform="rotate(-180 88.2025 717.637)" fill="#70C217"/>
<circle cx="36.5233" cy="717.637" r="3.52358" transform="rotate(-180 36.5233 717.637)" fill="#70C217"/>
<circle cx="243.24" cy="665.957" r="3.52358" transform="rotate(-180 243.24 665.957)" fill="#70C217"/>
<circle cx="191.561" cy="665.957" r="3.52358" transform="rotate(-180 191.561 665.957)" fill="#70C217"/>
<circle cx="139.882" cy="665.957" r="3.52358" transform="rotate(-180 139.882 665.957)" fill="#70C217"/>
<circle cx="88.2025" cy="665.957" r="3.52358" transform="rotate(-180 88.2025 665.957)" fill="#70C217"/>
<circle cx="36.5233" cy="665.957" r="3.52358" transform="rotate(-180 36.5233 665.957)" fill="#70C217"/>
<circle cx="243.24" cy="614.278" r="3.52358" transform="rotate(-180 243.24 614.278)" fill="#70C217"/>
<circle cx="191.561" cy="614.278" r="3.52358" transform="rotate(-180 191.561 614.278)" fill="#70C217"/>
<circle cx="139.882" cy="614.278" r="3.52358" transform="rotate(-180 139.882 614.278)" fill="#70C217"/>
<circle cx="88.2025" cy="614.278" r="3.52358" transform="rotate(-180 88.2025 614.278)" fill="#70C217"/>
<circle cx="36.5233" cy="614.278" r="3.52358" transform="rotate(-180 36.5233 614.278)" fill="#70C217"/>
<circle cx="243.24" cy="562.599" r="3.52358" transform="rotate(-180 243.24 562.599)" fill="#70C217"/>
<circle cx="191.561" cy="562.599" r="3.52358" transform="rotate(-180 191.561 562.599)" fill="#70C217"/>
<circle cx="139.882" cy="562.599" r="3.52358" transform="rotate(-180 139.882 562.599)" fill="#70C217"/>
<circle cx="88.2025" cy="562.599" r="3.52358" transform="rotate(-180 88.2025 562.599)" fill="#70C217"/>
<circle cx="36.5233" cy="562.599" r="3.52358" transform="rotate(-180 36.5233 562.599)" fill="#70C217"/>
<circle cx="243.24" cy="510.92" r="3.52358" transform="rotate(-180 243.24 510.92)" fill="#70C217"/>
<circle cx="191.561" cy="510.92" r="3.52358" transform="rotate(-180 191.561 510.92)" fill="#70C217"/>
<circle cx="139.882" cy="510.92" r="3.52358" transform="rotate(-180 139.882 510.92)" fill="#70C217"/>
<circle cx="88.2025" cy="510.92" r="3.52358" transform="rotate(-180 88.2025 510.92)" fill="#70C217"/>
<circle cx="36.5233" cy="510.92" r="3.52358" transform="rotate(-180 36.5233 510.92)" fill="#70C217"/>
<circle cx="243.24" cy="459.241" r="3.52358" transform="rotate(-180 243.24 459.241)" fill="#70C217"/>
<circle cx="191.561" cy="459.241" r="3.52358" transform="rotate(-180 191.561 459.241)" fill="#70C217"/>
<circle cx="139.882" cy="459.241" r="3.52358" transform="rotate(-180 139.882 459.241)" fill="#70C217"/>
<circle cx="88.2025" cy="459.241" r="3.52358" transform="rotate(-180 88.2025 459.241)" fill="#70C217"/>
<circle cx="36.5233" cy="459.241" r="3.52358" transform="rotate(-180 36.5233 459.241)" fill="#70C217"/>
<circle cx="243.24" cy="407.561" r="3.52358" transform="rotate(-180 243.24 407.561)" fill="#70C217"/>
<circle cx="191.561" cy="407.561" r="3.52358" transform="rotate(-180 191.561 407.561)" fill="#70C217"/>
<circle cx="139.882" cy="407.561" r="3.52358" transform="rotate(-180 139.882 407.561)" fill="#70C217"/>
<circle cx="88.2025" cy="407.561" r="3.52358" transform="rotate(-180 88.2025 407.561)" fill="#70C217"/>
<circle cx="36.5233" cy="407.561" r="3.52358" transform="rotate(-180 36.5233 407.561)" fill="#70C217"/>
<circle cx="243.24" cy="355.882" r="3.52358" transform="rotate(-180 243.24 355.882)" fill="#70C217"/>
<circle cx="191.561" cy="355.882" r="3.52358" transform="rotate(-180 191.561 355.882)" fill="#70C217"/>
<circle cx="139.882" cy="355.882" r="3.52358" transform="rotate(-180 139.882 355.882)" fill="#70C217"/>
<circle cx="88.2025" cy="355.882" r="3.52358" transform="rotate(-180 88.2025 355.882)" fill="#70C217"/>
<circle cx="36.5233" cy="355.882" r="3.52358" transform="rotate(-180 36.5233 355.882)" fill="#70C217"/>
<circle cx="243.24" cy="304.203" r="3.52358" transform="rotate(-180 243.24 304.203)" fill="#70C217"/>
<circle cx="191.561" cy="304.203" r="3.52358" transform="rotate(-180 191.561 304.203)" fill="#70C217"/>
<circle cx="139.882" cy="304.203" r="3.52358" transform="rotate(-180 139.882 304.203)" fill="#70C217"/>
<circle cx="88.2025" cy="304.203" r="3.52358" transform="rotate(-180 88.2025 304.203)" fill="#70C217"/>
<circle cx="36.5233" cy="304.203" r="3.52358" transform="rotate(-180 36.5233 304.203)" fill="#70C217"/>
<circle cx="243.24" cy="252.524" r="3.52358" transform="rotate(-180 243.24 252.524)" fill="#70C217"/>
<circle cx="191.561" cy="252.524" r="3.52358" transform="rotate(-180 191.561 252.524)" fill="#70C217"/>
<circle cx="139.882" cy="252.524" r="3.52358" transform="rotate(-180 139.882 252.524)" fill="#70C217"/>
<circle cx="88.2025" cy="252.524" r="3.52358" transform="rotate(-180 88.2025 252.524)" fill="#70C217"/>
<circle cx="36.5233" cy="252.524" r="3.52358" transform="rotate(-180 36.5233 252.524)" fill="#70C217"/>
<circle cx="1071.52" cy="835.24" r="3.52358" transform="rotate(-90 1071.52 835.24)" fill="#70C217"/>
<circle cx="1071.52" cy="783.561" r="3.52358" transform="rotate(-90 1071.52 783.561)" fill="#70C217"/>
<circle cx="1071.52" cy="731.882" r="3.52358" transform="rotate(-90 1071.52 731.882)" fill="#70C217"/>
<circle cx="1071.52" cy="680.203" r="3.52358" transform="rotate(-90 1071.52 680.203)" fill="#70C217"/>
<circle cx="1071.52" cy="628.524" r="3.52358" transform="rotate(-90 1071.52 628.524)" fill="#70C217"/>
<circle cx="1123.2" cy="835.241" r="3.52358" transform="rotate(-90 1123.2 835.241)" fill="#70C217"/>
<circle cx="1123.2" cy="783.561" r="3.52358" transform="rotate(-90 1123.2 783.561)" fill="#70C217"/>
<circle cx="1123.2" cy="731.882" r="3.52358" transform="rotate(-90 1123.2 731.882)" fill="#70C217"/>
<circle cx="1123.2" cy="680.203" r="3.52358" transform="rotate(-90 1123.2 680.203)" fill="#70C217"/>
<circle cx="1123.2" cy="628.524" r="3.52358" transform="rotate(-90 1123.2 628.524)" fill="#70C217"/>
<circle cx="1174.88" cy="835.241" r="3.52358" transform="rotate(-90 1174.88 835.241)" fill="#70C217"/>
<circle cx="1174.88" cy="783.561" r="3.52358" transform="rotate(-90 1174.88 783.561)" fill="#70C217"/>
<circle cx="1174.88" cy="731.882" r="3.52358" transform="rotate(-90 1174.88 731.882)" fill="#70C217"/>
<circle cx="1174.88" cy="680.203" r="3.52358" transform="rotate(-90 1174.88 680.203)" fill="#70C217"/>
<circle cx="1174.88" cy="628.524" r="3.52358" transform="rotate(-90 1174.88 628.524)" fill="#70C217"/>
<circle cx="1226.56" cy="835.241" r="3.52358" transform="rotate(-90 1226.56 835.241)" fill="#70C217"/>
<circle cx="1226.56" cy="783.561" r="3.52358" transform="rotate(-90 1226.56 783.561)" fill="#70C217"/>
<circle cx="1226.56" cy="731.882" r="3.52358" transform="rotate(-90 1226.56 731.882)" fill="#70C217"/>
<circle cx="1226.56" cy="680.203" r="3.52358" transform="rotate(-90 1226.56 680.203)" fill="#70C217"/>
<circle cx="1226.56" cy="628.524" r="3.52358" transform="rotate(-90 1226.56 628.524)" fill="#70C217"/>
<circle cx="1278.24" cy="835.241" r="3.52358" transform="rotate(-90 1278.24 835.241)" fill="#70C217"/>
<circle cx="1278.24" cy="783.561" r="3.52358" transform="rotate(-90 1278.24 783.561)" fill="#70C217"/>
<circle cx="1278.24" cy="731.882" r="3.52358" transform="rotate(-90 1278.24 731.882)" fill="#70C217"/>
<circle cx="1278.24" cy="680.203" r="3.52358" transform="rotate(-90 1278.24 680.203)" fill="#70C217"/>
<circle cx="1278.24" cy="628.524" r="3.52358" transform="rotate(-90 1278.24 628.524)" fill="#70C217"/>
<circle cx="1329.92" cy="835.241" r="3.52358" transform="rotate(-90 1329.92 835.241)" fill="#70C217"/>
<circle cx="1329.92" cy="783.561" r="3.52358" transform="rotate(-90 1329.92 783.561)" fill="#70C217"/>
<circle cx="1329.92" cy="731.882" r="3.52358" transform="rotate(-90 1329.92 731.882)" fill="#70C217"/>
<circle cx="1329.92" cy="680.203" r="3.52358" transform="rotate(-90 1329.92 680.203)" fill="#70C217"/>
<circle cx="1329.92" cy="628.524" r="3.52358" transform="rotate(-90 1329.92 628.524)" fill="#70C217"/>
<circle cx="1381.6" cy="835.241" r="3.52358" transform="rotate(-90 1381.6 835.241)" fill="#70C217"/>
<circle cx="1381.6" cy="783.561" r="3.52358" transform="rotate(-90 1381.6 783.561)" fill="#70C217"/>
<circle cx="1381.6" cy="731.882" r="3.52358" transform="rotate(-90 1381.6 731.882)" fill="#70C217"/>
<circle cx="1381.6" cy="680.203" r="3.52358" transform="rotate(-90 1381.6 680.203)" fill="#70C217"/>
<circle cx="1381.6" cy="628.524" r="3.52358" transform="rotate(-90 1381.6 628.524)" fill="#70C217"/>
<circle cx="1433.28" cy="835.241" r="3.52358" transform="rotate(-90 1433.28 835.241)" fill="#70C217"/>
<circle cx="1433.28" cy="783.561" r="3.52358" transform="rotate(-90 1433.28 783.561)" fill="#70C217"/>
<circle cx="1433.28" cy="731.882" r="3.52358" transform="rotate(-90 1433.28 731.882)" fill="#70C217"/>
<circle cx="1433.28" cy="680.203" r="3.52358" transform="rotate(-90 1433.28 680.203)" fill="#70C217"/>
<circle cx="1433.28" cy="628.524" r="3.52358" transform="rotate(-90 1433.28 628.524)" fill="#70C217"/>
<circle cx="1484.96" cy="835.241" r="3.52358" transform="rotate(-90 1484.96 835.241)" fill="#70C217"/>
<circle cx="1484.96" cy="783.561" r="3.52358" transform="rotate(-90 1484.96 783.561)" fill="#70C217"/>
<circle cx="1484.96" cy="731.882" r="3.52358" transform="rotate(-90 1484.96 731.882)" fill="#70C217"/>
<circle cx="1484.96" cy="680.203" r="3.52358" transform="rotate(-90 1484.96 680.203)" fill="#70C217"/>
<circle cx="1484.96" cy="628.524" r="3.52358" transform="rotate(-90 1484.96 628.524)" fill="#70C217"/>
<circle cx="1536.64" cy="835.241" r="3.52358" transform="rotate(-90 1536.64 835.241)" fill="#70C217"/>
<circle cx="1536.64" cy="783.561" r="3.52358" transform="rotate(-90 1536.64 783.561)" fill="#70C217"/>
<circle cx="1536.64" cy="731.882" r="3.52358" transform="rotate(-90 1536.64 731.882)" fill="#70C217"/>
<circle cx="1536.64" cy="680.203" r="3.52358" transform="rotate(-90 1536.64 680.203)" fill="#70C217"/>
<circle cx="1536.64" cy="628.524" r="3.52358" transform="rotate(-90 1536.64 628.524)" fill="#70C217"/>
<circle cx="220.5" cy="245.5" r="198" stroke="#FFBA49" stroke-width="5"/>
<circle cx="1355" cy="540" r="128.5" stroke="#FFBA49" stroke-width="5"/>
<circle cx="32.5" cy="32.5" r="30" stroke="#FFBA49" stroke-width="5"/>
</svg>
