<svg width="10" height="10" viewBox="0 0 10 10" fill="none" xmlns="http://www.w3.org/2000/svg">
<path d="M5.20672 8.44078L7.5711 9.93853C7.87335 10.1298 8.24835 9.84516 8.15872 9.49228L7.47585 6.80541C7.45656 6.73057 7.45878 6.6518 7.48227 6.57816C7.50575 6.50453 7.54954 6.43902 7.6086 6.38916L9.72885 4.62478C10.0071 4.39303 9.86385 3.93066 9.50572 3.90741L6.7371 3.72741C6.66255 3.72212 6.59105 3.69577 6.5309 3.65142C6.47075 3.60707 6.42444 3.54656 6.39735 3.47691L5.3646 0.876659C5.33648 0.802761 5.28656 0.739156 5.22146 0.694278C5.15636 0.649399 5.07916 0.625366 5.0001 0.625366C4.92103 0.625366 4.84383 0.649399 4.77873 0.694278C4.71364 0.739156 4.66372 0.802761 4.6356 0.876659L3.60285 3.47691C3.57581 3.54663 3.52952 3.60722 3.46937 3.65164C3.40922 3.69606 3.33768 3.72246 3.2631 3.72778L0.494473 3.90778C0.136723 3.93066 -0.00727701 4.39303 0.271348 4.62478L2.3916 6.38953C2.45059 6.43936 2.49434 6.50481 2.51782 6.57837C2.5413 6.65193 2.54356 6.73062 2.52435 6.80541L1.89135 9.29728C1.78372 9.72066 2.2341 10.0623 2.59635 9.83241L4.79385 8.44078C4.85561 8.40152 4.92728 8.38066 5.00047 8.38066C5.07366 8.38066 5.14533 8.40152 5.2071 8.44078H5.20672Z" fill="#FF8A00"/>
</svg>
