<svg width="72" height="72" viewBox="0 0 72 72" fill="none" xmlns="http://www.w3.org/2000/svg">
<rect width="72" height="72" fill="#CBCBCB"/>
<g id="Business Product Company" clip-path="url(#clip0_0_1)">
<rect width="1920" height="6549" transform="translate(-498 -3494)" fill="white"/>
<g id="1/4 Layout 2" clip-path="url(#clip1_0_1)">
<rect width="1920" height="819" transform="translate(-498 -394)" fill="#231F8B"/>
<g id="container" clip-path="url(#clip2_0_1)">
<g id="row">
<g id="col-md-3">
<g id="card" filter="url(#filter0_d_0_1)">
<rect width="230" height="288" transform="translate(-40 -35)" fill="white"/>
<g id="icon cool-icon-l19" clip-path="url(#clip3_0_1)">
<g id="014-school-1" clip-path="url(#clip4_0_1)">
<g id="Frame" clip-path="url(#clip5_0_1)">
<g id="Frame_2" clip-path="url(#clip6_0_1)">
<g id="Frame_3" clip-path="url(#clip7_0_1)">
<path id="Vector" d="M70.8 28.8H50.4V25.2C50.4 24.816 50.2163 24.4551 49.9056 24.2292L37.2 14.9892V10.8H50.4C51.0627 10.8 51.6 10.2627 51.6 9.6V2.4C51.6 1.7373 51.0627 1.2 50.4 1.2H37.2C37.2 0.5373 36.6627 0 36 0C35.3373 0 34.8 0.5373 34.8 1.2V14.9892L22.0944 24.2292C21.7838 24.4551 21.6 24.816 21.6 25.2V28.8H1.2C0.5373 28.8 0 29.3373 0 30V70.8C0 71.4627 0.5373 72 1.2 72H70.8C71.4627 72 72 71.4627 72 70.8V30C72 29.3373 71.4627 28.8 70.8 28.8ZM37.2 3.6H49.2V8.4H37.2V3.6ZM21.6 69.6H2.4V31.2H21.6V69.6ZM40.8 69.6H31.2V57.6H40.8V69.6ZM48 69.6H43.2V56.4C43.2 55.7373 42.6627 55.2 42 55.2H30C29.3373 55.2 28.8 55.7373 28.8 56.4V69.6H24V25.8108L36 17.0832L48 25.8108V69.6ZM69.6 69.6H50.4V31.2H69.6V69.6Z" fill="#8D5CF6"/>
<path id="Vector_2" d="M10.8 34.7998H6V37.1998H10.8V34.7998Z" fill="#8D5CF6"/>
<path id="Vector_3" d="M18 34.7998H13.2V37.1998H18V34.7998Z" fill="#8D5CF6"/>
<path id="Vector_4" d="M10.8 39.6001H6V42.0001H10.8V39.6001Z" fill="#8D5CF6"/>
<path id="Vector_5" d="M18 39.6001H13.2V42.0001H18V39.6001Z" fill="#8D5CF6"/>
<path id="Vector_6" d="M10.8 44.3999H6V46.7999H10.8V44.3999Z" fill="#8D5CF6"/>
<path id="Vector_7" d="M18 44.3999H13.2V46.7999H18V44.3999Z" fill="#8D5CF6"/>
<path id="Vector_8" d="M10.8 49.2002H6V51.6002H10.8V49.2002Z" fill="#8D5CF6"/>
<path id="Vector_9" d="M18 49.2002H13.2V51.6002H18V49.2002Z" fill="#8D5CF6"/>
<path id="Vector_10" d="M10.8 54H6V56.4H10.8V54Z" fill="#8D5CF6"/>
<path id="Vector_11" d="M18 54H13.2V56.4H18V54Z" fill="#8D5CF6"/>
<path id="Vector_12" d="M58.8 34.7998H54V37.1998H58.8V34.7998Z" fill="#8D5CF6"/>
<path id="Vector_13" d="M66 34.7998H61.2V37.1998H66V34.7998Z" fill="#8D5CF6"/>
<path id="Vector_14" d="M58.8 39.6001H54V42.0001H58.8V39.6001Z" fill="#8D5CF6"/>
<path id="Vector_15" d="M66 39.6001H61.2V42.0001H66V39.6001Z" fill="#8D5CF6"/>
<path id="Vector_16" d="M58.8 44.3999H54V46.7999H58.8V44.3999Z" fill="#8D5CF6"/>
<path id="Vector_17" d="M66 44.3999H61.2V46.7999H66V44.3999Z" fill="#8D5CF6"/>
<path id="Vector_18" d="M58.8 49.2002H54V51.6002H58.8V49.2002Z" fill="#8D5CF6"/>
<path id="Vector_19" d="M66 49.2002H61.2V51.6002H66V49.2002Z" fill="#8D5CF6"/>
<path id="Vector_20" d="M58.8 54H54V56.4H58.8V54Z" fill="#8D5CF6"/>
<path id="Vector_21" d="M66 54H61.2V56.4H66V54Z" fill="#8D5CF6"/>
<path id="Vector_22" d="M27.6001 36.0001C27.6053 40.637 31.3631 44.3948 36.0001 44.4001C40.6393 44.4001 44.4001 40.6393 44.4001 36.0001C44.4001 31.3609 40.6393 27.6001 36.0001 27.6001C31.3609 27.6001 27.6001 31.3609 27.6001 36.0001ZM42.0001 36.0001C42.0001 39.3137 39.3137 42.0001 36.0001 42.0001C32.6864 42.0001 30.0001 39.3137 30.0001 36.0001C30.004 32.6881 32.6881 30.004 36.0001 30.0001C39.3137 30.0001 42.0001 32.6864 42.0001 36.0001Z" fill="#8D5CF6"/>
<path id="Vector_23" d="M34.7999 34.8002H32.3999V37.2002H37.1999V31.2002H34.7999V34.8002Z" fill="#8D5CF6"/>
</g>
</g>
</g>
</g>
</g>
</g>
</g>
</g>
</g>
</g>
</g>
<defs>
<filter id="filter0_d_0_1" x="-59" y="-41" width="268" height="326" filterUnits="userSpaceOnUse" color-interpolation-filters="sRGB">
<feFlood flood-opacity="0" result="BackgroundImageFix"/>
<feColorMatrix in="SourceAlpha" type="matrix" values="0 0 0 0 0 0 0 0 0 0 0 0 0 0 0 0 0 0 127 0" result="hardAlpha"/>
<feOffset dy="13"/>
<feGaussianBlur stdDeviation="9.5"/>
<feColorMatrix type="matrix" values="0 0 0 0 0 0 0 0 0 0 0 0 0 0 0 0 0 0 0.07 0"/>
<feBlend mode="normal" in2="BackgroundImageFix" result="effect1_dropShadow_0_1"/>
<feBlend mode="normal" in="SourceGraphic" in2="effect1_dropShadow_0_1" result="shape"/>
</filter>
<clipPath id="clip0_0_1">
<rect width="1920" height="6549" fill="white" transform="translate(-498 -3494)"/>
</clipPath>
<clipPath id="clip1_0_1">
<rect width="1920" height="819" fill="white" transform="translate(-498 -394)"/>
</clipPath>
<clipPath id="clip2_0_1">
<rect width="1050" height="792" fill="white" transform="translate(-44 -355)"/>
</clipPath>
<clipPath id="clip3_0_1">
<rect width="72" height="72" fill="white"/>
</clipPath>
<clipPath id="clip4_0_1">
<rect width="72" height="72" fill="white"/>
</clipPath>
<clipPath id="clip5_0_1">
<rect width="72" height="72" fill="white"/>
</clipPath>
<clipPath id="clip6_0_1">
<rect width="72" height="72" fill="white"/>
</clipPath>
<clipPath id="clip7_0_1">
<rect width="72" height="72" fill="white"/>
</clipPath>
</defs>
</svg>
