<svg width="72" height="72" viewBox="0 0 72 72" fill="none" xmlns="http://www.w3.org/2000/svg">
<g clip-path="url(#clip0_4001_482)">
<path d="M71.9714 57.9212V51.5857H65.2136V47.362H62.9609V43.8423H65.2136V37.5068H48.3692V39.6187H63.1017V41.7305H19.4069V43.8423H60.849V47.362H14.8816C13.9111 47.362 13.1217 46.5726 13.1217 45.6022C13.1217 44.6317 13.9111 43.8423 14.8816 43.8423H17.2951V41.7305H14.8816C12.7468 41.7305 11.0099 43.4673 11.0099 45.6022C11.0099 47.7371 12.7468 49.4739 14.8816 49.4739H63.1016V51.5857H26.7078V53.6975H69.8594V55.8093H10.2356C6.9362 55.8093 4.25207 58.4935 4.25207 61.7928C4.25207 65.0922 6.9362 67.7763 10.2356 67.7763H59.974V65.6645H10.2357C8.1008 65.6645 6.36404 63.9278 6.36404 61.7928C6.36404 59.6579 8.1008 57.9212 10.2357 57.9212H67.607V61.4409H20.7948V63.5527H67.607V65.6645H62.0859V67.7763H69.8596V69.8882H10.2357C5.77188 69.8882 2.14039 66.2567 2.14039 61.7928C2.14039 57.329 5.77188 53.6975 10.2357 53.6975H24.5961V51.5857H14.8817C11.5824 51.5857 8.89823 48.9015 8.89823 45.6022C8.89823 42.3028 11.5824 39.6187 14.8817 39.6187H46.2574V37.5068H14.8817C10.4179 37.5068 6.7864 41.1383 6.7864 45.6022C6.7864 47.9874 7.82387 50.1344 9.47067 51.6174C4.19871 52.0103 0.0285645 56.4222 0.0285645 61.7928C0.0285645 67.4211 4.60742 72 10.2357 72H71.9714V65.6645H69.7188V57.9212H71.9714Z" fill="white"/>
<path d="M16.5713 61.4409H18.6831V63.5527H16.5713V61.4409Z" fill="white"/>
<path d="M19.4572 31.3844L19.9274 31.6979C20.1107 31.8201 24.5487 34.6911 35.9998 34.6911C47.451 34.6911 51.8889 31.8201 52.0722 31.6979L52.5425 31.3844V13.6065L58.8779 11.4947V21.4637C57.2549 21.9247 56.0622 23.4192 56.0622 25.1879V30.4674H63.8055V25.1879C63.8055 23.4192 62.6128 21.9247 60.9898 21.4637V10.7907L64.6808 9.56037L53.5915 5.86383L52.9236 7.86725L58.0027 9.56023L35.9998 16.8946L13.997 9.56037L35.9998 2.22615L50.9202 7.19963L51.5881 5.19622L35.9998 0L7.31885 9.56037L19.4572 13.6065V31.3844ZM61.6937 25.1879V28.3556H58.174V25.1879C58.174 24.2174 58.9634 23.428 59.9338 23.428C60.9043 23.428 61.6937 24.2174 61.6937 25.1879ZM21.569 14.3104L35.9998 19.1207L50.4306 14.3104V22.5833H47.826V24.6951H50.4306V26.8069H45.855V28.9188H50.4306V30.1918C49.0698 30.8545 44.6914 32.5793 35.9998 32.5793C27.3016 32.5793 22.9231 30.8518 21.569 30.1923V14.3104Z" fill="white"/>
<path d="M12.3477 61.4409H14.4595V63.5527H12.3477V61.4409Z" fill="white"/>
<path d="M41.6313 26.8071H43.7432V28.919H41.6313V26.8071Z" fill="white"/>
</g>
<defs>
<clipPath id="clip0_4001_482">
<rect width="71.9428" height="72" fill="white" transform="translate(0.0285645)"/>
</clipPath>
</defs>
</svg>
