<svg width="80" height="80" viewBox="0 0 80 80" fill="none" xmlns="http://www.w3.org/2000/svg">
<g id="fruits 1" clip-path="url(#clip0_41645_15132)">
<path id="Vector" d="M74.3936 12.887C73.9908 11.6235 73.2724 10.6342 72.3782 9.92493C71.8252 9.48669 71.5121 8.81287 71.5121 8.1073V2.34375C71.5121 1.69678 70.9878 1.17188 70.3402 1.17188H67.9965C67.3495 1.17188 66.8246 1.69678 66.8246 2.34375V7.23206C66.8246 8.09753 66.351 8.89832 65.5838 9.29871C64.479 9.87549 63.5238 10.8081 62.9025 12.1094C60.2829 17.5958 55.6338 28.9551 46.0849 38.4857C36.5542 48.0347 25.195 52.6837 19.7085 55.3033C14.6829 57.7026 15.1266 65.0867 20.4861 66.7944C23.6166 67.7917 27.0938 68.2697 30.7339 68.2037C41.3553 68.0121 52.5265 62.0551 61.0904 53.4912C69.6548 44.9274 75.6112 33.7561 75.8035 23.1348C75.8688 19.4946 75.3909 16.0175 74.3936 12.887Z" fill="#FFCF5D"/>
<path id="Vector_2" d="M69.4656 13.5974C69.6774 13.7653 69.8287 13.9984 69.9276 14.3103C70.7736 16.9659 71.1739 19.906 71.1172 23.0505C70.9579 31.842 65.9707 41.9824 57.7767 50.177C49.5822 58.3716 39.4412 63.3588 30.6497 63.5175C28.1655 63.5626 26.1691 65.5322 26.0537 67.9791C27.5723 68.1573 29.1378 68.233 30.7345 68.2043C41.3558 68.0121 52.5271 62.0557 61.0909 53.4918C69.6554 44.9274 75.6118 33.7561 75.8041 23.1348C75.8694 19.4946 75.3915 16.0175 74.3942 12.887C73.9913 11.6235 73.2729 10.6342 72.3788 9.92493C71.8258 9.48669 71.5127 8.81287 71.5127 8.1073V2.34375C71.5127 1.69678 70.9884 1.17188 70.3408 1.17188H67.9971C67.3501 1.17188 66.8252 1.69678 66.8252 2.34375V8.1073C66.8252 10.2655 67.7877 12.2662 69.4656 13.5974Z" fill="#FFB545"/>
<path id="Vector_3" d="M14.9386 35.5109L10.997 33.0152C10.0057 32.3871 8.76002 33.3222 9.10303 34.4367L10.2597 38.1934C11.1215 40.9937 12.9061 43.4278 15.328 45.1081L19.2007 47.6563C19.2013 43.0933 19.0243 38.0982 14.9386 35.5109Z" fill="#28D05B"/>
<path id="Vector_4" d="M25.6829 45.9552C23.4106 45.8722 21.209 46.4636 19.2004 47.5842C17.1929 46.4642 14.9908 45.8716 12.7184 45.9552C7.96685 46.1578 4.54949 48.706 2.72698 51.9867C0.897761 55.3216 0.663996 59.3896 2.12274 63.8782C4.35357 70.7226 10.274 76.8542 15.8984 77.1753C16.4507 77.2131 16.9909 77.2015 17.5164 77.146C18.6285 77.0288 19.7729 77.0288 20.8849 77.146C21.4105 77.2015 21.9506 77.2131 22.503 77.1753C28.1268 76.8542 34.0478 70.7226 36.2786 63.8782C37.7374 59.3896 37.503 55.3216 35.6744 51.9867C33.8519 48.706 30.4345 46.1578 25.6829 45.9552Z" fill="#FF5368"/>
<path id="Vector_5" d="M35.6743 51.9867C34.7826 50.3809 33.5076 48.9514 31.8816 47.8864C32.0519 48.1433 32.2124 48.4058 32.3613 48.6737C34.1906 52.0087 34.4249 56.0761 32.9656 60.5652C31.4678 65.1611 28.3062 69.4354 24.688 71.8451C22.6897 73.1757 20.3319 73.8623 17.9308 73.8623H8.7041C10.9386 75.7892 13.4465 77.0355 15.8983 77.1753C16.4507 77.2131 16.9908 77.2016 17.517 77.146C18.637 77.027 19.7667 77.0282 20.8867 77.146C21.4116 77.2016 21.9512 77.2125 22.5035 77.1753C28.1273 76.8543 34.0483 70.7227 36.2792 63.8782C37.7379 59.3897 37.5035 55.3217 35.6743 51.9867Z" fill="#D9435B"/>
<path id="Vector_6" d="M67.8671 48.2031C67.3745 46.1426 65.5215 44.6094 63.3096 44.6094C61.097 44.6094 59.2446 46.1426 58.7515 48.2031C52.3458 50.1538 47.6846 56.1084 47.6846 63.1519C47.6846 71.7816 54.6798 78.7769 63.3096 78.7769C71.9387 78.7769 78.9346 71.7816 78.9346 63.1519C78.9346 56.1084 74.2733 50.1538 67.8671 48.2031Z" fill="#FF983B"/>
<path id="Vector_7" d="M72.577 50.5719C74.4905 53.1647 75.6215 56.3696 75.6215 59.8395C75.6215 68.4686 68.6262 75.4639 59.9965 75.4639C56.5272 75.4639 53.3223 74.3329 50.7295 72.4194C53.575 76.2756 58.1501 78.7769 63.3101 78.7769C71.9392 78.7769 78.9351 71.7816 78.9351 63.1519C78.9351 57.9926 76.4332 53.4174 72.577 50.5719Z" fill="#FF7E40"/>
<path id="Vector_8" d="M72.2354 48.7672L71.0787 45.0105C70.2169 42.2102 68.4329 39.7755 66.0104 38.0958L64.4814 37.0893C63.4756 36.4277 62.1377 37.1491 62.1377 38.3527V40.0178C62.1377 43.1513 63.6361 45.9431 66.3998 47.693L70.3414 50.1893C71.3326 50.8161 72.579 49.8817 72.2354 48.7672Z" fill="#28D05B"/>
<path id="Vector_9" d="M52.5035 19.7382C52.2399 19.1529 51.5337 18.91 50.941 19.1553L50.2843 19.4275L50.7872 18.9246C51.2407 18.4705 51.2871 17.7253 50.847 17.2583C50.3917 16.7756 49.6306 16.7664 49.1643 17.2327L48.6272 17.7698L48.9177 17.0679C49.1655 16.4698 48.8817 15.7843 48.2836 15.5365C47.6854 15.2881 47 15.5732 46.7522 16.1713L46.1162 17.7076C45.9648 18.0726 46.0124 18.4595 46.1974 18.7635C46.5105 19.2798 46.4604 19.936 46.0338 20.3632C45.5803 20.8167 45.5345 21.5619 45.9746 22.0289C46.4305 22.5123 47.191 22.5202 47.6567 22.0545L47.6793 22.0319C48.1121 21.5992 48.7749 21.5522 49.3016 21.8634C49.605 22.0429 49.9877 22.0868 50.3472 21.9379L51.8834 21.3019C52.4925 21.0498 52.7757 20.3437 52.5035 19.7382Z" fill="#28D05B"/>
<path id="Vector_10" d="M49.2525 20.459C48.3968 20.2295 47.5063 20.5017 46.921 21.1365L43.0758 19.9365L40.2309 22.923L39.0231 27.428C39.0096 27.4243 38.9962 27.4194 38.9822 27.4158C37.7322 27.0795 36.4468 27.821 36.1111 29.071C35.7754 30.321 36.5163 31.607 37.7663 31.9427C39.0169 32.2784 40.3023 31.5369 40.638 30.2869C40.7345 29.9268 40.7497 29.5569 40.6716 29.1937C40.9109 29.917 41.5041 30.5176 42.2958 30.73C43.5464 31.0651 44.8312 30.3229 45.1662 29.0729C45.2694 28.689 45.2737 28.2861 45.1778 27.901C45.284 28.2696 45.4824 28.6169 45.7729 28.9075C46.6878 29.823 48.1722 29.823 49.0871 28.9075C50.0027 27.9919 50.0027 26.5082 49.0871 25.5933C48.7984 25.3046 48.445 25.1013 48.066 24.9945C49.3081 25.3119 50.577 24.5709 50.9096 23.3295C51.2447 22.0795 50.5031 20.7941 49.2525 20.459Z" fill="#D9435B"/>
<path id="Vector_11" d="M45.9377 17.1466C44.1946 16.6803 42.6034 18.2807 43.0673 20.0165C42.7963 19.0003 41.8722 18.2801 40.8035 18.2801C40.2041 18.2801 39.6041 18.5089 39.1464 18.9667C38.2308 19.8822 38.2308 21.366 39.1464 22.2809C39.4625 22.5977 39.8452 22.8052 40.2505 22.9029C38.9742 22.5287 37.6632 23.2868 37.3263 24.5465C36.9918 25.7971 37.734 27.0819 38.9846 27.4164C40.2352 27.7509 41.52 27.0081 41.8545 25.7581C41.9607 25.3607 41.9607 24.9433 41.8545 24.5465C42.1194 25.5182 43.002 26.2824 44.1183 26.2824C44.1219 26.2824 44.1256 26.2818 44.1293 26.2818C46.1904 26.2726 47.2524 23.758 45.7754 22.2815C45.4714 21.977 45.1119 21.7786 44.7353 21.6767C45.9829 22.005 47.2622 21.2635 47.5961 20.0159C47.9305 18.7659 47.1877 17.4811 45.9377 17.1466Z" fill="#FF5368"/>
<path id="Vector_12" d="M46.1221 4.32312C45.8743 3.72559 45.1889 3.44177 44.5907 3.68897L43.8882 3.9801L44.4259 3.44238C44.8837 2.98462 44.8837 2.24304 44.4259 1.78528C43.9681 1.32751 43.2266 1.32751 42.7688 1.78528L42.2311 2.323L42.5222 1.62048C42.77 1.02295 42.4862 0.336914 41.8881 0.0897219C41.2905 -0.158081 40.6045 0.125733 40.3567 0.723877L39.7207 2.26013L43.9517 6.49048L45.4879 5.85449C46.0861 5.60669 46.3699 4.92126 46.1221 4.32312Z" fill="#28D05B"/>
<path id="Vector_13" d="M33.8826 3.49056C36.3234 1.04976 39.9489 1.38118 42.3897 3.82198C44.8305 6.26278 45.1619 9.88888 42.7211 12.3297C40.2803 14.7705 33.7819 17.3114 31.3411 14.8706C28.9003 12.4298 31.4418 5.93135 33.8826 3.49056Z" fill="#FF5368"/>
<path id="Vector_14" d="M42.3899 3.82202C41.804 3.23608 41.1491 2.77344 40.4594 2.43958C41.5159 4.6228 41.2632 7.16187 39.4083 9.01672C37.5535 10.8716 33.3567 12.7814 30.377 12.522C30.4594 13.4637 30.7554 14.2847 31.3413 14.8706C33.7821 17.3114 40.2805 14.7705 42.7213 12.3297C45.1621 9.88892 44.8307 6.26282 42.3899 3.82202Z" fill="#D9435B"/>
<path id="Vector_15" d="M30 24.024C30 28.3392 26.5021 31.8365 22.1875 31.8365C17.8729 31.8365 14.375 28.3392 14.375 24.024C14.375 19.7095 17.8729 16.2115 22.1875 16.2115C26.5021 16.2115 30 19.7095 30 24.024Z" fill="#5C87BD"/>
<path id="Vector_16" d="M25.8013 17.0978C26.3665 18.1787 26.6875 19.4073 26.6875 20.7111C26.6875 25.0262 23.1896 28.5236 18.875 28.5236C17.5707 28.5236 16.3427 28.2025 15.2617 27.6373C16.566 30.1324 19.1771 31.8365 22.188 31.8365C26.5026 31.8365 30.0005 28.3392 30.0005 24.024C30.0005 21.0132 28.2964 18.4021 25.8013 17.0978Z" fill="#456EA2"/>
<path id="Vector_17" d="M73.296 49.751C73.3998 49.3347 73.3919 48.8885 73.2582 48.4534L72.1028 44.6948C71.169 41.6559 69.211 38.9789 66.5895 37.1564C66.5816 37.1509 66.5736 37.146 66.5657 37.1405L65.0386 36.1334C63.2582 34.9597 60.8839 36.2421 60.8839 38.3771V40.0433C60.8839 41.3318 61.1128 42.5665 61.5462 43.7091C59.7945 44.2303 58.3705 45.5511 57.7309 47.309C54.6053 48.3972 51.8111 50.4346 49.8116 53.0975C47.6918 55.9204 46.5382 59.2657 46.4571 62.7942C43.1325 64.4885 39.8079 65.6915 36.5388 66.3837C39.1487 60.415 39.2049 53.5938 34.7554 48.8477C36.6536 47.6636 38.4627 46.427 40.146 45.1575C42.5648 43.3344 44.8195 41.377 46.8495 39.3396C54.6272 31.5576 59.1017 22.9108 62.9585 14.5831C63.8838 12.5848 64.3123 11.2512 66.0377 10.3448C67.1895 9.73938 67.9054 8.5498 67.9054 7.23633V2.34558H70.2461V8.11218C70.2461 9.19067 70.724 10.1886 71.5541 10.8496C72.317 11.4594 72.8651 12.2675 73.1801 13.2513C75.771 21.4081 74.499 30.0171 70.8473 37.7545C70.4829 38.5217 71.0384 39.4275 71.9038 39.4275C72.3543 39.4275 72.7699 39.1644 72.9616 38.7579L72.9634 38.7567C74.1774 36.1829 75.1247 33.5828 75.7765 31.0266C77.4049 24.6533 77.1846 18.1299 75.4097 12.5397C74.9605 11.12 74.1304 9.90051 73.0086 9.01245C72.7443 8.80432 72.5868 8.4668 72.5868 8.11218V2.34558C72.5868 1.05286 71.537 0.000610352 70.2461 0.000610352H67.9054C66.6151 0.00183106 65.5659 1.05286 65.5647 2.34558V7.23633C65.5647 7.66907 65.3242 8.07251 64.9544 8.26477C62.5136 9.53857 61.8501 11.4069 60.8363 13.5919C57.7699 20.2161 53.3211 29.5551 45.1955 37.6807C41.6853 41.203 37.6601 44.3323 32.9109 47.2314C30.8772 45.7745 28.4065 44.9286 25.6886 44.8126C24.1664 44.7565 22.6643 44.9701 21.1971 45.448C23.3833 41.1267 26.6219 38.1378 30.8607 36.5411C32.1437 37.8278 33.6732 36.0425 32.6179 34.9854L31.9942 34.3597C31.6804 34.046 31.2172 33.9362 30.796 34.0765C26.3033 35.5774 22.6772 38.4943 20.1106 42.6245C19.7066 39.5508 18.597 36.4813 15.5409 34.5428L11.6048 32.0453C10.7307 31.4911 9.63516 31.5393 8.81302 32.1692C7.99942 32.7917 7.668 33.8257 7.96829 34.8035L9.12369 38.5626C9.85611 40.946 11.2209 43.1049 13.0397 44.8053C8.46206 44.8322 4.09744 47.1204 1.69327 51.4563C-0.299533 55.0964 -0.53818 59.5312 1.00296 64.2822C2.16018 67.8387 4.25491 71.2384 6.90201 73.8544C9.69375 76.6138 12.8566 78.2263 15.7942 78.3948C16.404 78.4363 17.0168 78.4247 17.6125 78.3618C18.647 78.252 19.6968 78.252 20.7307 78.3612C21.0951 78.4003 21.4638 78.4192 21.8312 78.4192C22.0674 78.4192 22.3036 78.4113 22.5368 78.3954C25.5025 78.2257 28.6781 76.5997 31.4772 73.8159C32.8944 72.4066 34.1505 70.7733 35.1894 69.0161C38.9442 68.4229 42.7681 67.1924 46.5865 65.3473C47.6454 73.6011 54.7029 80 63.224 80C72.4745 80 79.9995 72.4603 79.9995 63.1927C80.0001 57.8693 77.513 52.9218 73.296 49.751ZM11.3606 37.8723L10.2058 34.1132C10.1967 34.0845 10.1912 34.0656 10.2345 34.032C10.3285 33.9606 10.041 33.8287 14.2891 36.524V36.5247C17.1883 38.3636 17.8389 41.6205 17.9707 45.4913L15.9596 44.165C13.7727 42.6416 12.1394 40.4071 11.3606 37.8723ZM35.1155 63.5553C33.0873 69.79 27.6015 75.7562 22.3909 76.0547C21.9173 76.087 21.4418 76.0785 20.9773 76.0297C20.3786 75.9656 19.7755 75.9344 19.1725 75.9344C18.5689 75.9344 17.9658 75.9662 17.3665 76.0297C16.9038 76.0785 16.4284 76.087 15.9407 76.0541C13.5585 75.9174 10.9328 74.5435 8.54568 72.1851C6.16043 69.8273 4.272 66.7627 3.22891 63.5565C1.89285 59.4366 2.07168 55.6427 3.74283 52.5897C5.56472 49.303 8.84659 47.323 12.7406 47.1564C14.5424 47.0905 16.3222 47.4908 18.0403 48.3447L18.5286 48.6664C18.9851 48.9673 19.6162 48.9233 20.0246 48.4869C21.8288 47.5354 23.7056 47.0886 25.5965 47.1564C32.8816 47.4677 38.1557 54.184 35.1155 63.5553ZM63.2246 38.3771C63.2246 38.1055 63.5225 37.9419 63.752 38.0927C65.1588 39.0204 66.9563 40.0201 68.5396 42.5165C68.5744 42.8406 68.7416 43.1458 69.0205 43.3466C69.3635 43.9972 69.6492 44.6783 69.8659 45.3845L71.0213 49.1431C71.0298 49.1718 71.0359 49.1913 70.992 49.2242C70.9346 49.2682 70.8998 49.2462 70.8742 49.2303L66.9374 46.7322C62.9311 44.1907 63.2246 40.495 63.2246 38.3771ZM63.2246 77.655C55.2657 77.655 48.7898 71.167 48.7898 63.1927C48.7898 57.3627 52.1883 52.2369 57.4031 49.953C57.4922 50.7959 57.765 51.6144 58.2143 52.359C58.434 52.7234 58.8209 52.9248 59.2171 52.9248C59.4234 52.9248 59.6321 52.8699 59.8213 52.7557C60.3743 52.4207 60.5519 51.6992 60.2174 51.145C59.7389 50.3522 59.5943 49.4153 59.8109 48.5071C60.0948 47.3169 60.9547 46.3965 62.054 46.0095V49.2798C62.054 49.9213 62.5484 50.4816 63.1886 50.5005C63.8515 50.5206 64.3953 49.9884 64.3953 49.3286V47.7563C65.1277 48.3887 65.6331 48.681 66.7323 49.3787C66.7238 49.9994 66.5535 50.6128 66.2318 51.145C65.8974 51.6992 66.0744 52.4207 66.628 52.7557C66.8172 52.8699 67.0259 52.9248 67.2322 52.9248C67.6283 52.9248 68.0147 52.7234 68.235 52.359C68.5371 51.8591 68.7599 51.3165 68.9003 50.7538L69.6217 51.2115C70.027 51.4691 70.4799 51.5961 70.9309 51.5961C71.1848 51.5961 71.4381 51.5552 71.6829 51.4746C75.4372 54.1962 77.6594 58.526 77.6594 63.1927C77.6594 71.167 71.1842 77.655 63.2246 77.655Z" fill="#1A1A1A"/>
<path id="Vector_18" d="M22.1554 33.0298C27.1029 33.0298 31.1282 28.9972 31.1282 24.0399C31.1282 19.0826 27.1029 15.0494 22.1554 15.0494C17.2073 15.0494 13.1826 19.0826 13.1826 24.0399C13.1826 28.9972 17.2073 33.0298 22.1554 33.0298ZM22.1554 17.395C25.812 17.395 28.7875 20.376 28.7875 24.0399C28.7875 27.7039 25.812 30.6848 22.1554 30.6848C18.4982 30.6848 15.5233 27.7039 15.5233 24.0399C15.5233 20.376 18.4982 17.395 22.1554 17.395Z" fill="#1A1A1A"/>
<path id="Vector_19" d="M19.8038 23.3057C20.0321 23.5346 20.3318 23.6487 20.6314 23.6487C20.9305 23.6487 21.2302 23.5346 21.4591 23.3057L21.8015 22.9621L22.1445 23.3057C22.3728 23.5346 22.6725 23.6487 22.9721 23.6487C23.2718 23.6487 23.5709 23.5346 23.7998 23.3057C24.2569 22.8474 24.2569 22.1052 23.7998 21.6474L23.4568 21.3038L23.7998 20.9601C24.2569 20.5024 24.2569 19.7596 23.7998 19.3018C23.3426 18.8441 22.6017 18.8441 22.1445 19.3018L21.8015 19.6454L21.4591 19.3018C21.0019 18.8441 20.261 18.8441 19.8038 19.3018C19.3466 19.7596 19.3466 20.5024 19.8038 20.9601L20.1462 21.3038L19.8038 21.6474C19.3466 22.1052 19.3466 22.8474 19.8038 23.3057Z" fill="#1A1A1A"/>
<path id="Vector_20" d="M43.4902 13.1665C45.4445 11.2079 45.9633 8.48511 45.082 6.00098L45.4262 5.85815C46.0231 5.61035 46.3069 4.92493 46.0591 4.32617C45.812 3.72803 45.1271 3.44421 44.5302 3.69202L43.9644 3.92639C43.9528 3.91113 43.9424 3.89587 43.9308 3.88062L44.3654 3.44482C44.8226 2.98706 44.8226 2.24426 44.3654 1.7865C43.9083 1.32874 43.1673 1.32874 42.7101 1.7865L42.2744 2.22351C42.2591 2.21191 42.2444 2.20093 42.2292 2.18994L42.4642 1.6217C42.7114 1.02356 42.4282 0.337525 41.8306 0.0897219C41.2343 -0.158081 40.5489 0.125733 40.3017 0.723877L40.1601 1.06751C37.6601 0.171509 34.9617 0.705567 33.0074 2.66357C30.2748 5.40161 27.3897 12.6233 30.4695 15.7092C33.5677 18.8141 40.79 15.8722 43.4902 13.1665ZM31.8636 9.50745C32.4282 7.5177 33.553 5.43396 34.6627 4.32251C36.6475 2.33337 39.5345 2.68066 41.5035 4.65393C43.5817 6.73584 43.7209 9.61853 41.8349 11.5082C40.7253 12.6202 38.6452 13.7469 36.6597 14.3127C34.576 14.906 32.8804 14.809 32.1242 14.0509C31.3686 13.2941 31.2709 11.5955 31.8636 9.50745Z" fill="#1A1A1A"/>
<path id="Vector_21" d="M38.1866 9.63568C38.6438 9.17792 38.6438 8.43512 38.1866 7.97736C37.7295 7.51959 36.9885 7.51959 36.5313 7.97736C36.0742 8.43512 36.0742 9.17792 36.5313 9.63568C36.9885 10.0934 37.7295 10.0934 38.1866 9.63568Z" fill="#1A1A1A"/>
<path id="Vector_22" d="M34.8766 12.9523C35.3337 12.4946 35.3337 11.7518 34.8766 11.294C34.4194 10.8362 33.6785 10.8362 33.2213 11.294C32.7648 11.7518 32.7648 12.4946 33.2213 12.9523C33.6785 13.4107 34.4194 13.4107 34.8766 12.9523Z" fill="#1A1A1A"/>
<path id="Vector_23" d="M34.8766 9.63568C35.3337 9.17792 35.3337 8.43512 34.8766 7.97736C34.4194 7.51959 33.6785 7.51959 33.2213 7.97736C32.7648 8.43512 32.7648 9.17792 33.2213 9.63568C33.6785 10.0934 34.4194 10.0934 34.8766 9.63568Z" fill="#1A1A1A"/>
<path id="Vector_24" d="M38.1866 12.9523C38.6438 12.4946 38.6438 11.7518 38.1866 11.294C37.7295 10.8362 36.9885 10.8362 36.5313 11.294C36.0742 11.7518 36.0742 12.4946 36.5313 12.9523C36.9885 13.4107 37.7295 13.4107 38.1866 12.9523Z" fill="#1A1A1A"/>
<path id="Vector_25" d="M41.4966 9.63568C41.9537 9.17792 41.9537 8.43512 41.4966 7.97736C41.04 7.51959 40.2984 7.51959 39.8419 7.97736C39.3847 8.43512 39.3847 9.17792 39.8419 9.63568C40.2984 10.0934 41.04 10.0934 41.4966 9.63568Z" fill="#1A1A1A"/>
<path id="Vector_26" d="M38.1866 6.31903C38.6438 5.86127 38.6438 5.11847 38.1866 4.66071C37.7295 4.20294 36.9885 4.20294 36.5313 4.66071C36.0742 5.11908 36.0742 5.86127 36.5313 6.31903C36.9885 6.77679 37.7295 6.77679 38.1866 6.31903Z" fill="#1A1A1A"/>
<path id="Vector_27" d="M43.4646 16.3995C43.0069 16.6742 42.6193 17.049 42.33 17.4866C41.047 16.8469 39.4076 17.0056 38.2657 18.15C37.1402 19.2773 36.9601 20.9167 37.6144 22.2229C36.9021 22.6892 36.3717 23.407 36.1441 24.259C35.9189 25.1038 36.0147 25.979 36.4053 26.7523C35.5929 27.2827 35.032 28.1311 34.8629 29.0924C34.5419 30.9137 35.7003 32.6819 37.4991 33.1183C38.995 33.4808 40.4684 32.8339 41.2643 31.626C42.2885 32.1436 43.5598 32.1564 44.6426 31.5057C45.1034 31.2286 45.4928 30.8502 45.7833 30.4071C47.0608 31.0486 48.7002 30.9064 49.8489 29.7559C50.9677 28.6346 51.1544 26.9977 50.5008 25.6873C51.2509 25.1984 51.7947 24.433 52.0034 23.5187C52.1756 22.7649 52.0822 21.9989 51.7849 21.3257C52.3721 21.0999 52.6791 20.4468 52.471 19.8474C52.2586 19.2352 51.5915 18.913 50.9805 19.1248L50.2908 19.3652L50.7528 18.9026C51.21 18.4448 51.21 17.702 50.7528 17.2443C50.2957 16.7865 49.5547 16.7865 49.0976 17.2443L48.6355 17.7069L48.8754 17.016C49.0878 16.4044 48.7655 15.7361 48.1546 15.5231C47.5595 15.3162 46.9107 15.6189 46.6824 16.2018C45.682 15.7617 44.4864 15.7867 43.4646 16.3995ZM46.401 19.726C46.3778 19.812 46.3662 19.8987 46.3626 19.9841L45.9372 20.4108C44.8727 21.4771 46.4267 23.2367 47.6846 21.9763C48.0905 21.568 48.5287 21.4832 48.956 21.6272C50.0399 21.9922 50.007 23.6108 48.8424 23.8818C47.6889 24.1498 47.3031 25.5957 48.1668 26.4093C48.3963 26.6254 48.5312 26.936 48.536 27.2601C48.5513 28.2996 47.2512 28.8641 46.506 28.0688C45.7028 27.2095 44.2538 27.5983 43.9883 28.7463C43.7814 29.6374 42.648 29.9896 41.9888 29.2847C41.1837 28.4235 39.7384 28.8141 39.4699 29.967C39.3344 30.5487 38.7271 31.0034 38.0496 30.8386C37.0645 30.6 36.8094 29.2609 37.7023 28.703C38.1979 28.3936 38.6215 28.5791 38.7954 28.6053C40.2377 28.9166 41.6494 28.2623 42.4038 27.0508C42.5082 27.1069 42.6168 27.1582 42.7285 27.2046C45.1925 28.2202 47.8604 26.1066 46.5408 24.7839C46.0836 24.3262 45.3427 24.3262 44.8855 24.7839C44.1696 25.5011 42.9892 25.0079 42.8946 24.093C42.8134 22.2125 40.4953 22.5183 40.5471 23.9923C40.5587 24.9756 40.7815 25.5927 40.1663 26.0968C39.8819 26.33 39.5034 26.3885 39.2526 26.3043C38.9761 26.3043 38.171 25.7428 38.4054 24.8651C38.5171 24.4458 38.8498 24.1241 39.2727 24.0247C40.4214 23.7555 40.8126 22.3059 39.9496 21.499C39.7183 21.283 39.5822 20.9723 39.5767 20.647C39.559 19.6033 40.8761 19.0436 41.6055 19.8218C42.4087 20.6793 43.8528 20.2924 44.1214 19.1467C44.1928 18.8446 44.3911 18.5773 44.6658 18.4125C45.5471 17.8839 46.6763 18.6957 46.401 19.726Z" fill="#1A1A1A"/>
<path id="Vector_28" d="M57.1377 55.3906C57.1377 56.0382 56.6128 56.5625 55.9658 56.5625C55.3182 56.5625 54.7939 56.0382 54.7939 55.3906C54.7939 54.7437 55.3182 54.2188 55.9658 54.2188C56.6128 54.2188 57.1377 54.7437 57.1377 55.3906Z" fill="#1A1A1A"/>
<path id="Vector_29" d="M60.2627 59.7662C60.2627 60.4132 59.7378 60.9381 59.0908 60.9381C58.4438 60.9381 57.9189 60.4132 57.9189 59.7662C57.9189 59.1187 58.4438 58.5944 59.0908 58.5944C59.7378 58.5944 60.2627 59.1187 60.2627 59.7662Z" fill="#1A1A1A"/>
<path id="Vector_30" d="M54.0127 63.2037C54.0127 63.8507 53.4884 64.3756 52.8408 64.3756C52.1938 64.3756 51.6689 63.8507 51.6689 63.2037C51.6689 62.5568 52.1938 62.0319 52.8408 62.0319C53.4884 62.0319 54.0127 62.5568 54.0127 63.2037Z" fill="#1A1A1A"/>
</g>
<defs>
<clipPath id="clip0_41645_15132">
<rect width="80" height="80" fill="white"/>
</clipPath>
</defs>
</svg>
