<svg width="36" height="36" viewBox="0 0 36 36" fill="none" xmlns="http://www.w3.org/2000/svg">
<g id="headphones 1" clip-path="url(#clip0_622_3041)">
<g id="Group">
<path id="Vector" d="M30.3165 13.6891V12.305C30.3165 8.99244 29.1443 5.91429 27.0191 3.63025C24.8409 1.28571 21.8459 0 18.5787 0H17.4367C14.1695 0 11.1745 1.28571 8.99636 3.63025C6.87115 5.91429 5.69888 8.99244 5.69888 12.305V13.6891C3.11989 13.863 1.07031 16.0109 1.07031 18.6353V20.7983C1.07031 23.5286 3.29384 25.7521 6.02409 25.7521H8.81485C9.31401 25.7521 9.72241 25.3437 9.72241 24.8445V14.5815C9.72241 14.0824 9.31401 13.674 8.81485 13.674H7.51401V12.305C7.51401 6.32269 11.7796 1.81513 17.4291 1.81513H18.5712C24.2283 1.81513 28.4863 6.32269 28.4863 12.305V13.674H27.1854C26.6863 13.674 26.2779 14.0824 26.2779 14.5815V24.837C26.2779 25.3361 26.6863 25.7445 27.1854 25.7445H28.456C28.0854 30.479 24.8258 31.5756 23.3132 31.8252C22.8972 30.5471 21.6947 29.6244 20.2804 29.6244H18.0115C16.2569 29.6244 14.8275 31.0538 14.8275 32.8084C14.8275 34.563 16.2569 36 18.0115 36H20.288C21.7552 36 22.988 35.0017 23.3585 33.6555C24.0997 33.5496 25.272 33.2849 26.4367 32.6042C28.0779 31.6437 30.0216 29.6849 30.2787 25.737C32.8728 25.5782 34.93 23.4227 34.93 20.7908V18.6277C34.9375 16.0109 32.8955 13.8555 30.3165 13.6891ZM7.92241 23.9294H6.03922C4.30729 23.9294 2.90056 22.5227 2.90056 20.7908V18.6277C2.90056 16.8958 4.30729 15.4891 6.03922 15.4891H7.92241V23.9294ZM20.288 34.1849H18.0115C17.2552 34.1849 16.6426 33.5723 16.6426 32.816C16.6426 32.0597 17.2552 31.4471 18.0115 31.4471H20.288C21.0443 31.4471 21.6569 32.0597 21.6569 32.816C21.6569 33.5723 21.0443 34.1849 20.288 34.1849ZM33.1224 20.7908C33.1224 22.5227 31.7157 23.9294 29.9838 23.9294H28.1006V15.4891H29.9838C31.7157 15.4891 33.1224 16.8958 33.1224 18.6277V20.7908Z" fill="#00B307"/>
</g>
</g>
<defs>
<clipPath id="clip0_622_3041">
<rect width="36" height="36" fill="white"/>
</clipPath>
</defs>
</svg>
