<svg width="36" height="36" viewBox="0 0 36 36" fill="none" xmlns="http://www.w3.org/2000/svg">
<g id="shopping-bag" clip-path="url(#clip0_622_3049)">
<g id="Group">
<g id="Group_2">
<path id="Vector" d="M32.3824 31.201L30.3108 7.85427C30.2735 7.39226 29.886 7.04202 29.4166 7.04202H25.0498C25.0423 3.15959 21.8827 0 18.0003 0C14.1179 0 10.9583 3.15959 10.9508 7.04202H6.58401C6.12199 7.04202 5.7345 7.39226 5.68979 7.85427L3.61816 31.201C3.61816 31.2308 3.61816 31.2532 3.61816 31.283C3.61816 33.8837 6.01022 36 8.94625 36H27.0543C29.9903 36 32.3824 33.8837 32.3824 31.283C32.3824 31.2532 32.3824 31.2308 32.3824 31.201ZM18.0003 1.78845C20.8991 1.78845 23.2539 4.14324 23.2613 7.04202H12.7393C12.7467 4.14324 15.1015 1.78845 18.0003 1.78845ZM27.0543 34.2041H8.94625C7.00877 34.2041 5.42897 32.9149 5.40661 31.3128L7.40372 8.83047H10.9508V11.9677C10.9508 12.4595 11.3532 12.8619 11.845 12.8619C12.3369 12.8619 12.7393 12.4595 12.7393 11.9677V8.83047H23.2613V11.9677C23.2613 12.4595 23.6637 12.8619 24.1555 12.8619C24.6474 12.8619 25.0498 12.4595 25.0498 11.9677V8.83047H28.5968L30.5939 31.3202C30.5716 32.9149 28.9918 34.2041 27.0543 34.2041Z" fill="white"/>
<path id="Vector_2" d="M21.7188 18.6148L16.4428 23.8908L14.2893 21.7372C13.939 21.3869 13.3727 21.3869 13.0224 21.7372C12.6722 22.0874 12.6722 22.6537 13.0224 23.004L15.8094 25.791C15.9808 25.9624 16.2118 26.0518 16.4428 26.0518C16.6739 26.0518 16.8974 25.9624 17.0763 25.791L22.9856 19.8816C23.3358 19.5314 23.3358 18.9651 22.9856 18.6148C22.6353 18.272 22.069 18.272 21.7188 18.6148Z" fill="white"/>
</g>
</g>
</g>
<defs>
<clipPath id="clip0_622_3049">
<rect width="36" height="36" fill="white"/>
</clipPath>
</defs>
</svg>
