<svg width="36" height="36" viewBox="0 0 36 36" fill="none" xmlns="http://www.w3.org/2000/svg">
<g id="package" clip-path="url(#clip0_622_3059)">
<g id="Group">
<path id="Vector" d="M34.5566 8.48713C34.5566 8.35036 34.5262 8.21359 34.4654 8.08442C34.3439 7.82609 34.1083 7.65133 33.85 7.59814L18.3726 0.0911777C18.1218 -0.0303926 17.8255 -0.0303926 17.5748 0.0911777L1.94538 7.66653C1.64146 7.81089 1.44391 8.11482 1.42871 8.45673V8.46433C1.42871 8.47193 1.42871 8.47953 1.42871 8.49472V27.5053C1.42871 27.8548 1.62626 28.1739 1.94538 28.3259L17.5748 35.9012C17.5824 35.9012 17.5824 35.9012 17.59 35.9088C17.6128 35.9164 17.6355 35.924 17.6583 35.9392C17.6659 35.9392 17.6735 35.9468 17.6887 35.9468C17.7115 35.9544 17.7343 35.962 17.7571 35.9696C17.7647 35.9696 17.7723 35.9772 17.7799 35.9772C17.8027 35.9848 17.8331 35.9848 17.8559 35.9924C17.8635 35.9924 17.8711 35.9924 17.8787 35.9924C17.9091 35.9924 17.9471 36 17.9775 36C18.0079 36 18.0458 36 18.0762 35.9924C18.0838 35.9924 18.0914 35.9924 18.099 35.9924C18.1218 35.9924 18.1522 35.9848 18.175 35.9772C18.1826 35.9772 18.1902 35.9696 18.1978 35.9696C18.2206 35.962 18.2434 35.9544 18.2662 35.9468C18.2738 35.9468 18.2814 35.9392 18.2966 35.9392C18.3194 35.9316 18.3422 35.924 18.365 35.9088C18.3726 35.9088 18.3726 35.9088 18.3802 35.9012L34.0551 28.3031C34.3667 28.1511 34.5718 27.832 34.5718 27.4825V8.50992C34.5566 8.50232 34.5566 8.49472 34.5566 8.48713ZM17.9699 1.92233L31.525 8.49472L26.533 10.9185L12.9779 4.34614L17.9699 1.92233ZM17.9699 15.0671L4.41478 8.49472L10.8884 5.35669L24.4435 11.9291L17.9699 15.0671ZM3.25227 9.96117L17.0581 16.6551V33.6218L3.25227 26.9278V9.96117ZM18.8816 33.6218V16.6551L25.3629 13.5095V17.9468C25.3629 18.4483 25.7732 18.8586 26.2746 18.8586C26.7761 18.8586 27.1864 18.4483 27.1864 17.9468V12.6205L32.7331 9.93077V26.8974L18.8816 33.6218Z" fill="#00B307"/>
</g>
</g>
<defs>
<clipPath id="clip0_622_3059">
<rect width="36" height="36" fill="white"/>
</clipPath>
</defs>
</svg>
