<svg width="224" height="113" viewBox="0 0 224 113" fill="none" xmlns="http://www.w3.org/2000/svg">
<path d="M28.4285 69.1259C42.344 69.1259 53.6248 57.8451 53.6248 43.9296C53.6248 30.0141 42.344 18.7333 28.4285 18.7333C14.513 18.7333 3.23218 30.0141 3.23218 43.9296C3.23218 57.8451 14.513 69.1259 28.4285 69.1259Z" stroke="white" stroke-width="6" stroke-linecap="round" stroke-linejoin="round"/>
<path d="M14.7866 65.1306L10.4313 97.9218L28.4286 87.1234L46.426 97.9218L42.0706 65.0946" stroke="white" stroke-width="6" stroke-linecap="round" stroke-linejoin="round"/>
<path fill-rule="evenodd" clip-rule="evenodd" d="M212.602 6.73499C213.206 6.73499 213.786 6.97516 214.214 7.40268C214.641 7.83021 214.881 8.41005 214.881 9.01465V15.8537H221.72C222.325 15.8537 222.905 16.0938 223.332 16.5214C223.76 16.9489 224 17.5287 224 18.1333C224 18.7379 223.76 19.3178 223.332 19.7453C222.905 20.1728 222.325 20.413 221.72 20.413H214.881V27.252C214.881 27.8566 214.641 28.4364 214.214 28.864C213.786 29.2915 213.206 29.5317 212.602 29.5317C211.997 29.5317 211.417 29.2915 210.99 28.864C210.562 28.4364 210.322 27.8566 210.322 27.252V20.413H203.483C202.878 20.413 202.299 20.1728 201.871 19.7453C201.444 19.3178 201.203 18.7379 201.203 18.1333C201.203 17.5287 201.444 16.9489 201.871 16.5214C202.299 16.0938 202.878 15.8537 203.483 15.8537H210.322V9.01465C210.322 8.41005 210.562 7.83021 210.99 7.40268C211.417 6.97516 211.997 6.73499 212.602 6.73499Z" fill="white" fill-opacity="0.8"/>
<path d="M117.884 90.732H112.88L112.052 93.126H109.406L113.924 80.544H116.858L121.376 93.126H118.712L117.884 90.732ZM117.2 88.716L115.382 83.46L113.564 88.716H117.2ZM136.889 83.154L133.973 93.126H131.255L129.437 86.16L127.619 93.126H124.883L121.949 83.154H124.505L126.269 90.75L128.177 83.154H130.841L132.713 90.732L134.477 83.154H136.889ZM137.605 88.104C137.605 87.096 137.803 86.202 138.199 85.422C138.607 84.642 139.153 84.042 139.837 83.622C140.533 83.202 141.307 82.992 142.159 82.992C142.903 82.992 143.551 83.142 144.103 83.442C144.667 83.742 145.117 84.12 145.453 84.576V83.154H147.991V93.126H145.453V91.668C145.129 92.136 144.679 92.526 144.103 92.838C143.539 93.138 142.885 93.288 142.141 93.288C141.301 93.288 140.533 93.072 139.837 92.64C139.153 92.208 138.607 91.602 138.199 90.822C137.803 90.03 137.605 89.124 137.605 88.104ZM145.453 88.14C145.453 87.528 145.333 87.006 145.093 86.574C144.853 86.13 144.529 85.794 144.121 85.566C143.713 85.326 143.275 85.206 142.807 85.206C142.339 85.206 141.907 85.32 141.511 85.548C141.115 85.776 140.791 86.112 140.539 86.556C140.299 86.988 140.179 87.504 140.179 88.104C140.179 88.704 140.299 89.232 140.539 89.688C140.791 90.132 141.115 90.474 141.511 90.714C141.919 90.954 142.351 91.074 142.807 91.074C143.275 91.074 143.713 90.96 144.121 90.732C144.529 90.492 144.853 90.156 145.093 89.724C145.333 89.28 145.453 88.752 145.453 88.14ZM152.972 84.702C153.296 84.174 153.716 83.76 154.232 83.46C154.76 83.16 155.36 83.01 156.032 83.01V85.656H155.366C154.574 85.656 153.974 85.842 153.566 86.214C153.17 86.586 152.972 87.234 152.972 88.158V93.126H150.452V83.154H152.972V84.702ZM157.081 88.104C157.081 87.096 157.279 86.202 157.675 85.422C158.083 84.642 158.635 84.042 159.331 83.622C160.027 83.202 160.801 82.992 161.653 82.992C162.301 82.992 162.919 83.136 163.507 83.424C164.095 83.7 164.563 84.072 164.911 84.54V79.806H167.467V93.126H164.911V91.65C164.599 92.142 164.161 92.538 163.597 92.838C163.033 93.138 162.379 93.288 161.635 93.288C160.795 93.288 160.027 93.072 159.331 92.64C158.635 92.208 158.083 91.602 157.675 90.822C157.279 90.03 157.081 89.124 157.081 88.104ZM164.929 88.14C164.929 87.528 164.809 87.006 164.569 86.574C164.329 86.13 164.005 85.794 163.597 85.566C163.189 85.326 162.751 85.206 162.283 85.206C161.815 85.206 161.383 85.32 160.987 85.548C160.591 85.776 160.267 86.112 160.015 86.556C159.775 86.988 159.655 87.504 159.655 88.104C159.655 88.704 159.775 89.232 160.015 89.688C160.267 90.132 160.591 90.474 160.987 90.714C161.395 90.954 161.827 91.074 162.283 91.074C162.751 91.074 163.189 90.96 163.597 90.732C164.005 90.492 164.329 90.156 164.569 89.724C164.809 89.28 164.929 88.752 164.929 88.14Z" fill="#E7E7E7"/>
<path d="M99.8044 45.1518C102.876 42.5918 105.324 40.4638 107.148 38.7678C108.972 37.0398 110.492 35.2478 111.708 33.3918C112.924 31.5358 113.532 29.7118 113.532 27.9198C113.532 26.2878 113.148 25.0078 112.38 24.0798C111.612 23.1518 110.428 22.6878 108.828 22.6878C107.228 22.6878 105.996 23.2318 105.132 24.3198C104.268 25.3758 103.82 26.8318 103.788 28.6878H97.2604C97.3884 24.8478 98.5244 21.9358 100.668 19.9518C102.844 17.9678 105.596 16.9758 108.924 16.9758C112.572 16.9758 115.372 17.9518 117.324 19.9038C119.276 21.8238 120.252 24.3678 120.252 27.5358C120.252 30.0318 119.58 32.4158 118.236 34.6878C116.892 36.9598 115.356 38.9438 113.628 40.6398C111.9 42.3038 109.644 44.3198 106.86 46.6878H121.02V52.2558H97.3084V47.2638L99.8044 45.1518ZM125.351 26.9598C125.511 23.7598 126.631 21.2958 128.711 19.5678C130.823 17.8078 133.591 16.9278 137.015 16.9278C139.351 16.9278 141.351 17.3438 143.015 18.1758C144.679 18.9758 145.927 20.0798 146.759 21.4878C147.623 22.8638 148.055 24.4318 148.055 26.1918C148.055 28.2078 147.527 29.9198 146.471 31.3278C145.447 32.7038 144.215 33.6318 142.775 34.1118V34.3038C144.631 34.8798 146.071 35.9038 147.095 37.3758C148.151 38.8478 148.679 40.7358 148.679 43.0398C148.679 44.9598 148.231 46.6718 147.335 48.1758C146.471 49.6798 145.175 50.8638 143.447 51.7278C141.751 52.5598 139.703 52.9758 137.303 52.9758C133.687 52.9758 130.743 52.0638 128.471 50.2398C126.199 48.4158 124.999 45.7278 124.871 42.1758H131.399C131.463 43.7438 131.991 45.0078 132.983 45.9678C134.007 46.8958 135.399 47.3598 137.159 47.3598C138.791 47.3598 140.039 46.9118 140.903 46.0158C141.799 45.0878 142.247 43.9038 142.247 42.4638C142.247 40.5438 141.639 39.1678 140.423 38.3358C139.207 37.5038 137.319 37.0878 134.759 37.0878H133.367V31.5678H134.759C139.303 31.5678 141.575 30.0478 141.575 27.0078C141.575 25.6318 141.159 24.5598 140.327 23.7918C139.527 23.0238 138.359 22.6398 136.823 22.6398C135.319 22.6398 134.151 23.0558 133.319 23.8878C132.519 24.6878 132.055 25.7118 131.927 26.9598H125.351ZM153.989 34.7838C153.989 29.2478 154.981 24.9118 156.965 21.7758C158.981 18.6398 162.309 17.0718 166.949 17.0718C171.589 17.0718 174.901 18.6398 176.885 21.7758C178.901 24.9118 179.909 29.2478 179.909 34.7838C179.909 40.3518 178.901 44.7198 176.885 47.8878C174.901 51.0558 171.589 52.6398 166.949 52.6398C162.309 52.6398 158.981 51.0558 156.965 47.8878C154.981 44.7198 153.989 40.3518 153.989 34.7838ZM173.285 34.7838C173.285 32.4158 173.125 30.4318 172.805 28.8318C172.517 27.1998 171.909 25.8718 170.981 24.8478C170.085 23.8238 168.741 23.3118 166.949 23.3118C165.157 23.3118 163.797 23.8238 162.869 24.8478C161.973 25.8718 161.365 27.1998 161.045 28.8318C160.757 30.4318 160.613 32.4158 160.613 34.7838C160.613 37.2158 160.757 39.2638 161.045 40.9278C161.333 42.5598 161.941 43.8878 162.869 44.9118C163.797 45.9038 165.157 46.3998 166.949 46.3998C168.741 46.3998 170.101 45.9038 171.029 44.9118C171.957 43.8878 172.565 42.5598 172.853 40.9278C173.141 39.2638 173.285 37.2158 173.285 34.7838Z" fill="white"/>
</svg>
