<svg width="267" height="113" viewBox="0 0 267 113" fill="none" xmlns="http://www.w3.org/2000/svg">
<path d="M56.0725 18.7334L53.0295 24.2154L31.2676 63.3687L24.8746 57.0413L22.6723 60.6674L3.11939 92.922L0.0930176 97.9218H104.478L102.482 93.315L92.4724 70.1981L90.5304 65.7167L83.6302 72.5461L58.9287 24.3145L56.0759 18.7334H56.0725ZM55.8289 32.8743L65.9725 52.6755L63.3899 54.8683L55.7822 48.4187L48.1779 54.8683L45.0748 52.2297L55.8289 32.8743ZM55.7856 57.114L63.3932 63.5636L69.0722 58.7421L79.7496 79.5968L81.825 83.6686L88.2715 77.2884L94.3443 91.317H11.8748C16.6463 83.4408 21.4244 75.5645 26.1992 67.6916L32.8325 74.2568L34.9747 70.4062C37.247 66.3178 39.5226 62.2327 41.7915 58.1443L48.1779 63.5603L55.7856 57.114Z" fill="white"/>
<path fill-rule="evenodd" clip-rule="evenodd" d="M255.056 6.73511C255.66 6.73511 256.24 6.97529 256.668 7.40281C257.095 7.83033 257.335 8.41017 257.335 9.01477V15.8538H264.174C264.779 15.8538 265.359 16.094 265.786 16.5215C266.214 16.949 266.454 17.5288 266.454 18.1334C266.454 18.738 266.214 19.3179 265.786 19.7454C265.359 20.1729 264.779 20.4131 264.174 20.4131H257.335V27.2521C257.335 27.8567 257.095 28.4366 256.668 28.8641C256.24 29.2916 255.66 29.5318 255.056 29.5318C254.451 29.5318 253.871 29.2916 253.444 28.8641C253.016 28.4366 252.776 27.8567 252.776 27.2521V20.4131H245.937C245.332 20.4131 244.753 20.1729 244.325 19.7454C243.898 19.3179 243.657 18.738 243.657 18.1334C243.657 17.5288 243.898 16.949 244.325 16.5215C244.753 16.094 245.332 15.8538 245.937 15.8538H252.776V9.01477C252.776 8.41017 253.016 7.83033 253.444 7.40281C253.871 6.97529 254.451 6.73511 255.056 6.73511Z" fill="white" fill-opacity="0.8"/>
<path d="M134.263 80.562C135.583 80.562 136.741 80.82 137.737 81.336C138.745 81.852 139.519 82.59 140.059 83.55C140.611 84.498 140.887 85.602 140.887 86.862C140.887 88.122 140.611 89.226 140.059 90.174C139.519 91.11 138.745 91.836 137.737 92.352C136.741 92.868 135.583 93.126 134.263 93.126H129.871V80.562H134.263ZM134.173 90.984C135.493 90.984 136.513 90.624 137.233 89.904C137.953 89.184 138.313 88.17 138.313 86.862C138.313 85.554 137.953 84.534 137.233 83.802C136.513 83.058 135.493 82.686 134.173 82.686H132.391V90.984H134.173ZM152.043 87.924C152.043 88.284 152.019 88.608 151.971 88.896H144.681C144.741 89.616 144.993 90.18 145.437 90.588C145.881 90.996 146.427 91.2 147.075 91.2C148.011 91.2 148.677 90.798 149.073 89.994H151.791C151.503 90.954 150.951 91.746 150.135 92.37C149.319 92.982 148.317 93.288 147.129 93.288C146.169 93.288 145.305 93.078 144.537 92.658C143.781 92.226 143.187 91.62 142.755 90.84C142.335 90.06 142.125 89.16 142.125 88.14C142.125 87.108 142.335 86.202 142.755 85.422C143.175 84.642 143.763 84.042 144.519 83.622C145.275 83.202 146.145 82.992 147.129 82.992C148.077 82.992 148.923 83.196 149.667 83.604C150.423 84.012 151.005 84.594 151.413 85.35C151.833 86.094 152.043 86.952 152.043 87.924ZM149.433 87.204C149.421 86.556 149.187 86.04 148.731 85.656C148.275 85.26 147.717 85.062 147.057 85.062C146.433 85.062 145.905 85.254 145.473 85.638C145.053 86.01 144.795 86.532 144.699 87.204H149.433ZM157.699 93.288C156.883 93.288 156.151 93.144 155.503 92.856C154.855 92.556 154.339 92.154 153.955 91.65C153.583 91.146 153.379 90.588 153.343 89.976H155.881C155.929 90.36 156.115 90.678 156.439 90.93C156.775 91.182 157.189 91.308 157.681 91.308C158.161 91.308 158.533 91.212 158.797 91.02C159.073 90.828 159.211 90.582 159.211 90.282C159.211 89.958 159.043 89.718 158.707 89.562C158.383 89.394 157.861 89.214 157.141 89.022C156.397 88.842 155.785 88.656 155.305 88.464C154.837 88.272 154.429 87.978 154.081 87.582C153.745 87.186 153.577 86.652 153.577 85.98C153.577 85.428 153.733 84.924 154.045 84.468C154.369 84.012 154.825 83.652 155.413 83.388C156.013 83.124 156.715 82.992 157.519 82.992C158.707 82.992 159.655 83.292 160.363 83.892C161.071 84.48 161.461 85.278 161.533 86.286H159.121C159.085 85.89 158.917 85.578 158.617 85.35C158.329 85.11 157.939 84.99 157.447 84.99C156.991 84.99 156.637 85.074 156.385 85.242C156.145 85.41 156.025 85.644 156.025 85.944C156.025 86.28 156.193 86.538 156.529 86.718C156.865 86.886 157.387 87.06 158.095 87.24C158.815 87.42 159.409 87.606 159.877 87.798C160.345 87.99 160.747 88.29 161.083 88.698C161.431 89.094 161.611 89.622 161.623 90.282C161.623 90.858 161.461 91.374 161.137 91.83C160.825 92.286 160.369 92.646 159.769 92.91C159.181 93.162 158.491 93.288 157.699 93.288ZM166.625 85.224V90.048C166.625 90.384 166.703 90.63 166.859 90.786C167.027 90.93 167.303 91.002 167.687 91.002H168.857V93.126H167.273C165.149 93.126 164.087 92.094 164.087 90.03V85.224H162.899V83.154H164.087V80.688H166.625V83.154H168.857V85.224H166.625ZM171.948 81.966C171.504 81.966 171.132 81.828 170.832 81.552C170.544 81.264 170.4 80.91 170.4 80.49C170.4 80.07 170.544 79.722 170.832 79.446C171.132 79.158 171.504 79.014 171.948 79.014C172.392 79.014 172.758 79.158 173.046 79.446C173.346 79.722 173.496 80.07 173.496 80.49C173.496 80.91 173.346 81.264 173.046 81.552C172.758 81.828 172.392 81.966 171.948 81.966ZM173.19 83.154V93.126H170.67V83.154H173.19ZM181.206 83.01C182.394 83.01 183.354 83.388 184.086 84.144C184.818 84.888 185.184 85.932 185.184 87.276V93.126H182.664V87.618C182.664 86.826 182.466 86.22 182.07 85.8C181.674 85.368 181.134 85.152 180.45 85.152C179.754 85.152 179.202 85.368 178.794 85.8C178.398 86.22 178.2 86.826 178.2 87.618V93.126H175.68V83.154H178.2V84.396C178.536 83.964 178.962 83.628 179.478 83.388C180.006 83.136 180.582 83.01 181.206 83.01ZM186.932 88.104C186.932 87.096 187.13 86.202 187.526 85.422C187.934 84.642 188.48 84.042 189.164 83.622C189.86 83.202 190.634 82.992 191.486 82.992C192.23 82.992 192.878 83.142 193.43 83.442C193.994 83.742 194.444 84.12 194.78 84.576V83.154H197.318V93.126H194.78V91.668C194.456 92.136 194.006 92.526 193.43 92.838C192.866 93.138 192.212 93.288 191.468 93.288C190.628 93.288 189.86 93.072 189.164 92.64C188.48 92.208 187.934 91.602 187.526 90.822C187.13 90.03 186.932 89.124 186.932 88.104ZM194.78 88.14C194.78 87.528 194.66 87.006 194.42 86.574C194.18 86.13 193.856 85.794 193.448 85.566C193.04 85.326 192.602 85.206 192.134 85.206C191.666 85.206 191.234 85.32 190.838 85.548C190.442 85.776 190.118 86.112 189.866 86.556C189.626 86.988 189.506 87.504 189.506 88.104C189.506 88.704 189.626 89.232 189.866 89.688C190.118 90.132 190.442 90.474 190.838 90.714C191.246 90.954 191.678 91.074 192.134 91.074C192.602 91.074 193.04 90.96 193.448 90.732C193.856 90.492 194.18 90.156 194.42 89.724C194.66 89.28 194.78 88.752 194.78 88.14ZM202.713 85.224V90.048C202.713 90.384 202.791 90.63 202.947 90.786C203.115 90.93 203.391 91.002 203.775 91.002H204.945V93.126H203.361C201.237 93.126 200.175 92.094 200.175 90.03V85.224H198.987V83.154H200.175V80.688H202.713V83.154H204.945V85.224H202.713ZM208.036 81.966C207.592 81.966 207.22 81.828 206.92 81.552C206.632 81.264 206.488 80.91 206.488 80.49C206.488 80.07 206.632 79.722 206.92 79.446C207.22 79.158 207.592 79.014 208.036 79.014C208.48 79.014 208.846 79.158 209.134 79.446C209.434 79.722 209.584 80.07 209.584 80.49C209.584 80.91 209.434 81.264 209.134 81.552C208.846 81.828 208.48 81.966 208.036 81.966ZM209.278 83.154V93.126H206.758V83.154H209.278ZM216.195 93.288C215.235 93.288 214.371 93.078 213.603 92.658C212.835 92.226 212.229 91.62 211.785 90.84C211.353 90.06 211.137 89.16 211.137 88.14C211.137 87.12 211.359 86.22 211.803 85.44C212.259 84.66 212.877 84.06 213.657 83.64C214.437 83.208 215.307 82.992 216.267 82.992C217.227 82.992 218.097 83.208 218.877 83.64C219.657 84.06 220.269 84.66 220.713 85.44C221.169 86.22 221.397 87.12 221.397 88.14C221.397 89.16 221.163 90.06 220.695 90.84C220.239 91.62 219.615 92.226 218.823 92.658C218.043 93.078 217.167 93.288 216.195 93.288ZM216.195 91.092C216.651 91.092 217.077 90.984 217.473 90.768C217.881 90.54 218.205 90.204 218.445 89.76C218.685 89.316 218.805 88.776 218.805 88.14C218.805 87.192 218.553 86.466 218.049 85.962C217.557 85.446 216.951 85.188 216.231 85.188C215.511 85.188 214.905 85.446 214.413 85.962C213.933 86.466 213.693 87.192 213.693 88.14C213.693 89.088 213.927 89.82 214.395 90.336C214.875 90.84 215.475 91.092 216.195 91.092ZM228.772 83.01C229.96 83.01 230.92 83.388 231.652 84.144C232.384 84.888 232.75 85.932 232.75 87.276V93.126H230.23V87.618C230.23 86.826 230.032 86.22 229.636 85.8C229.24 85.368 228.7 85.152 228.016 85.152C227.32 85.152 226.768 85.368 226.36 85.8C225.964 86.22 225.766 86.826 225.766 87.618V93.126H223.246V83.154H225.766V84.396C226.102 83.964 226.528 83.628 227.044 83.388C227.572 83.136 228.148 83.01 228.772 83.01Z" fill="#E7E7E7"/>
<path d="M142.258 45.1518C145.33 42.5918 147.778 40.4638 149.602 38.7678C151.426 37.0398 152.946 35.2478 154.162 33.3918C155.378 31.5358 155.986 29.7118 155.986 27.9198C155.986 26.2878 155.602 25.0078 154.834 24.0798C154.066 23.1518 152.882 22.6878 151.282 22.6878C149.682 22.6878 148.45 23.2318 147.586 24.3198C146.722 25.3758 146.274 26.8318 146.242 28.6878H139.714C139.842 24.8478 140.978 21.9358 143.122 19.9518C145.298 17.9678 148.05 16.9758 151.378 16.9758C155.026 16.9758 157.826 17.9518 159.778 19.9038C161.73 21.8238 162.706 24.3678 162.706 27.5358C162.706 30.0318 162.034 32.4158 160.69 34.6878C159.346 36.9598 157.81 38.9438 156.082 40.6398C154.354 42.3038 152.098 44.3198 149.314 46.6878H163.474V52.2558H139.762V47.2638L142.258 45.1518ZM167.805 26.9598C167.965 23.7598 169.085 21.2958 171.165 19.5678C173.277 17.8078 176.045 16.9278 179.469 16.9278C181.805 16.9278 183.805 17.3438 185.469 18.1758C187.133 18.9758 188.381 20.0798 189.213 21.4878C190.077 22.8638 190.509 24.4318 190.509 26.1918C190.509 28.2078 189.981 29.9198 188.925 31.3278C187.901 32.7038 186.669 33.6318 185.229 34.1118V34.3038C187.085 34.8798 188.525 35.9038 189.549 37.3758C190.605 38.8478 191.133 40.7358 191.133 43.0398C191.133 44.9598 190.685 46.6718 189.789 48.1758C188.925 49.6798 187.629 50.8638 185.901 51.7278C184.205 52.5598 182.157 52.9758 179.757 52.9758C176.141 52.9758 173.197 52.0638 170.925 50.2398C168.653 48.4158 167.453 45.7278 167.325 42.1758H173.853C173.917 43.7438 174.445 45.0078 175.437 45.9678C176.461 46.8958 177.853 47.3598 179.613 47.3598C181.245 47.3598 182.493 46.9118 183.357 46.0158C184.253 45.0878 184.701 43.9038 184.701 42.4638C184.701 40.5438 184.093 39.1678 182.877 38.3358C181.661 37.5038 179.773 37.0878 177.213 37.0878H175.821V31.5678H177.213C181.757 31.5678 184.029 30.0478 184.029 27.0078C184.029 25.6318 183.613 24.5598 182.781 23.7918C181.981 23.0238 180.813 22.6398 179.277 22.6398C177.773 22.6398 176.605 23.0558 175.773 23.8878C174.973 24.6878 174.509 25.7118 174.381 26.9598H167.805ZM196.443 34.7838C196.443 29.2478 197.435 24.9118 199.419 21.7758C201.435 18.6398 204.763 17.0718 209.403 17.0718C214.043 17.0718 217.355 18.6398 219.339 21.7758C221.355 24.9118 222.363 29.2478 222.363 34.7838C222.363 40.3518 221.355 44.7198 219.339 47.8878C217.355 51.0558 214.043 52.6398 209.403 52.6398C204.763 52.6398 201.435 51.0558 199.419 47.8878C197.435 44.7198 196.443 40.3518 196.443 34.7838ZM215.739 34.7838C215.739 32.4158 215.579 30.4318 215.259 28.8318C214.971 27.1998 214.363 25.8718 213.435 24.8478C212.539 23.8238 211.195 23.3118 209.403 23.3118C207.611 23.3118 206.251 23.8238 205.323 24.8478C204.427 25.8718 203.819 27.1998 203.499 28.8318C203.211 30.4318 203.067 32.4158 203.067 34.7838C203.067 37.2158 203.211 39.2638 203.499 40.9278C203.787 42.5598 204.395 43.8878 205.323 44.9118C206.251 45.9038 207.611 46.3998 209.403 46.3998C211.195 46.3998 212.555 45.9038 213.483 44.9118C214.411 43.8878 215.019 42.5598 215.307 40.9278C215.595 39.2638 215.739 37.2158 215.739 34.7838Z" fill="white"/>
</svg>
