<svg width="255" height="98" viewBox="0 0 255 98" fill="none" xmlns="http://www.w3.org/2000/svg">
<path d="M40.1394 58.3275C45.3899 58.3275 50.4254 56.2417 54.1381 52.5291C57.8507 48.8164 59.9365 43.7809 59.9365 38.5304C59.9365 33.2799 57.8507 28.2444 54.1381 24.5317C50.4254 20.819 45.3899 18.7333 40.1394 18.7333C34.8889 18.7333 29.8534 20.819 26.1407 24.5317C22.428 28.2444 20.3423 33.2799 20.3423 38.5304C20.3423 43.7809 22.428 48.8164 26.1407 52.5291C29.8534 56.2417 34.8889 58.3275 40.1394 58.3275ZM53.3375 38.5304C53.3375 42.0307 51.9469 45.3877 49.4718 47.8628C46.9967 50.3379 43.6397 51.7285 40.1394 51.7285C36.639 51.7285 33.2821 50.3379 30.8069 47.8628C28.3318 45.3877 26.9413 42.0307 26.9413 38.5304C26.9413 35.03 28.3318 31.6731 30.8069 29.1979C33.2821 26.7228 36.639 25.3323 40.1394 25.3323C43.6397 25.3323 46.9967 26.7228 49.4718 29.1979C51.9469 31.6731 53.3375 35.03 53.3375 38.5304ZM79.7336 91.3227C79.7336 97.9217 73.1346 97.9217 73.1346 97.9217H7.1442C7.1442 97.9217 0.545166 97.9217 0.545166 91.3227C0.545166 84.7236 7.1442 64.9265 40.1394 64.9265C73.1346 64.9265 79.7336 84.7236 79.7336 91.3227ZM73.1346 91.2963C73.128 89.6729 72.1183 84.7896 67.6442 80.3155C63.3416 76.0129 55.2446 71.5256 40.1394 71.5256C25.0276 71.5256 16.9372 76.0129 12.6346 80.3155C8.16045 84.7896 7.1574 89.6729 7.1442 91.2963H73.1346Z" fill="white"/>
<path fill-rule="evenodd" clip-rule="evenodd" d="M243.51 6.73499C244.114 6.73499 244.694 6.97516 245.122 7.40268C245.549 7.83021 245.789 8.41005 245.789 9.01465V15.8537H252.628C253.233 15.8537 253.813 16.0938 254.24 16.5214C254.668 16.9489 254.908 17.5287 254.908 18.1333C254.908 18.7379 254.668 19.3178 254.24 19.7453C253.813 20.1728 253.233 20.413 252.628 20.413H245.789V27.252C245.789 27.8566 245.549 28.4364 245.122 28.864C244.694 29.2915 244.114 29.5317 243.51 29.5317C242.905 29.5317 242.325 29.2915 241.898 28.864C241.47 28.4364 241.23 27.8566 241.23 27.252V20.413H234.391C233.786 20.413 233.207 20.1728 232.779 19.7453C232.352 19.3178 232.111 18.7379 232.111 18.1333C232.111 17.5287 232.352 16.9489 232.779 16.5214C233.207 16.0938 233.786 15.8537 234.391 15.8537H241.23V9.01465C241.23 8.41005 241.47 7.83021 241.898 7.40268C242.325 6.97516 242.905 6.73499 243.51 6.73499Z" fill="white" fill-opacity="0.8"/>
<path d="M119.719 93.126H117.199L111.493 84.504V93.126H108.973V80.544H111.493L117.199 89.184V80.544H119.719V93.126ZM131.479 87.924C131.479 88.284 131.455 88.608 131.407 88.896H124.117C124.177 89.616 124.429 90.18 124.873 90.588C125.317 90.996 125.863 91.2 126.511 91.2C127.447 91.2 128.113 90.798 128.509 89.994H131.227C130.939 90.954 130.387 91.746 129.571 92.37C128.755 92.982 127.753 93.288 126.565 93.288C125.605 93.288 124.741 93.078 123.973 92.658C123.217 92.226 122.623 91.62 122.191 90.84C121.771 90.06 121.561 89.16 121.561 88.14C121.561 87.108 121.771 86.202 122.191 85.422C122.611 84.642 123.199 84.042 123.955 83.622C124.711 83.202 125.581 82.992 126.565 82.992C127.513 82.992 128.359 83.196 129.103 83.604C129.859 84.012 130.441 84.594 130.849 85.35C131.269 86.094 131.479 86.952 131.479 87.924ZM128.869 87.204C128.857 86.556 128.623 86.04 128.167 85.656C127.711 85.26 127.153 85.062 126.493 85.062C125.869 85.062 125.341 85.254 124.909 85.638C124.489 86.01 124.231 86.532 124.135 87.204H128.869ZM147.143 83.154L144.227 93.126H141.509L139.691 86.16L137.873 93.126H135.137L132.203 83.154H134.759L136.523 90.75L138.431 83.154H141.095L142.967 90.732L144.731 83.154H147.143ZM161.345 80.562V82.596H157.997V93.126H155.477V82.596H152.129V80.562H161.345ZM165.704 84.702C166.028 84.174 166.448 83.76 166.964 83.46C167.492 83.16 168.092 83.01 168.764 83.01V85.656H168.098C167.306 85.656 166.706 85.842 166.298 86.214C165.902 86.586 165.704 87.234 165.704 88.158V93.126H163.184V83.154H165.704V84.702ZM169.813 88.104C169.813 87.096 170.011 86.202 170.407 85.422C170.815 84.642 171.361 84.042 172.045 83.622C172.741 83.202 173.515 82.992 174.367 82.992C175.111 82.992 175.759 83.142 176.311 83.442C176.875 83.742 177.325 84.12 177.661 84.576V83.154H180.199V93.126H177.661V91.668C177.337 92.136 176.887 92.526 176.311 92.838C175.747 93.138 175.093 93.288 174.349 93.288C173.509 93.288 172.741 93.072 172.045 92.64C171.361 92.208 170.815 91.602 170.407 90.822C170.011 90.03 169.813 89.124 169.813 88.104ZM177.661 88.14C177.661 87.528 177.541 87.006 177.301 86.574C177.061 86.13 176.737 85.794 176.329 85.566C175.921 85.326 175.483 85.206 175.015 85.206C174.547 85.206 174.115 85.32 173.719 85.548C173.323 85.776 172.999 86.112 172.747 86.556C172.507 86.988 172.387 87.504 172.387 88.104C172.387 88.704 172.507 89.232 172.747 89.688C172.999 90.132 173.323 90.474 173.719 90.714C174.127 90.954 174.559 91.074 175.015 91.074C175.483 91.074 175.921 90.96 176.329 90.732C176.737 90.492 177.061 90.156 177.301 89.724C177.541 89.28 177.661 88.752 177.661 88.14ZM186.819 90.804L189.339 83.154H192.021L188.331 93.126H185.271L181.599 83.154H184.299L186.819 90.804ZM202.706 87.924C202.706 88.284 202.682 88.608 202.634 88.896H195.344C195.404 89.616 195.656 90.18 196.1 90.588C196.544 90.996 197.09 91.2 197.738 91.2C198.674 91.2 199.34 90.798 199.736 89.994H202.454C202.166 90.954 201.614 91.746 200.798 92.37C199.982 92.982 198.98 93.288 197.792 93.288C196.832 93.288 195.968 93.078 195.2 92.658C194.444 92.226 193.85 91.62 193.418 90.84C192.998 90.06 192.788 89.16 192.788 88.14C192.788 87.108 192.998 86.202 193.418 85.422C193.838 84.642 194.426 84.042 195.182 83.622C195.938 83.202 196.808 82.992 197.792 82.992C198.74 82.992 199.586 83.196 200.33 83.604C201.086 84.012 201.668 84.594 202.076 85.35C202.496 86.094 202.706 86.952 202.706 87.924ZM200.096 87.204C200.084 86.556 199.85 86.04 199.394 85.656C198.938 85.26 198.38 85.062 197.72 85.062C197.096 85.062 196.568 85.254 196.136 85.638C195.716 86.01 195.458 86.532 195.362 87.204H200.096ZM207.065 79.806V93.126H204.545V79.806H207.065ZM212.075 79.806V93.126H209.555V79.806H212.075ZM223.835 87.924C223.835 88.284 223.811 88.608 223.763 88.896H216.473C216.533 89.616 216.785 90.18 217.229 90.588C217.673 90.996 218.219 91.2 218.867 91.2C219.803 91.2 220.469 90.798 220.865 89.994H223.583C223.295 90.954 222.743 91.746 221.927 92.37C221.111 92.982 220.109 93.288 218.921 93.288C217.961 93.288 217.097 93.078 216.329 92.658C215.573 92.226 214.979 91.62 214.547 90.84C214.127 90.06 213.917 89.16 213.917 88.14C213.917 87.108 214.127 86.202 214.547 85.422C214.967 84.642 215.555 84.042 216.311 83.622C217.067 83.202 217.937 82.992 218.921 82.992C219.869 82.992 220.715 83.196 221.459 83.604C222.215 84.012 222.797 84.594 223.205 85.35C223.625 86.094 223.835 86.952 223.835 87.924ZM221.225 87.204C221.213 86.556 220.979 86.04 220.523 85.656C220.067 85.26 219.509 85.062 218.849 85.062C218.225 85.062 217.697 85.254 217.265 85.638C216.845 86.01 216.587 86.532 216.491 87.204H221.225ZM228.194 84.702C228.518 84.174 228.938 83.76 229.454 83.46C229.982 83.16 230.582 83.01 231.254 83.01V85.656H230.588C229.796 85.656 229.196 85.842 228.788 86.214C228.392 86.586 228.194 87.234 228.194 88.158V93.126H225.674V83.154H228.194V84.702Z" fill="#E7E7E7"/>
<path d="M130.712 45.1518C133.784 42.5918 136.232 40.4638 138.056 38.7678C139.88 37.0398 141.4 35.2478 142.616 33.3918C143.832 31.5358 144.44 29.7118 144.44 27.9198C144.44 26.2878 144.056 25.0078 143.288 24.0798C142.52 23.1518 141.336 22.6878 139.736 22.6878C138.136 22.6878 136.904 23.2318 136.04 24.3198C135.176 25.3758 134.728 26.8318 134.696 28.6878H128.168C128.296 24.8478 129.432 21.9358 131.576 19.9518C133.752 17.9678 136.504 16.9758 139.832 16.9758C143.48 16.9758 146.28 17.9518 148.232 19.9038C150.184 21.8238 151.16 24.3678 151.16 27.5358C151.16 30.0318 150.488 32.4158 149.144 34.6878C147.8 36.9598 146.264 38.9438 144.536 40.6398C142.808 42.3038 140.552 44.3198 137.768 46.6878H151.928V52.2558H128.216V47.2638L130.712 45.1518ZM156.259 26.9598C156.419 23.7598 157.539 21.2958 159.619 19.5678C161.731 17.8078 164.499 16.9278 167.923 16.9278C170.259 16.9278 172.259 17.3438 173.923 18.1758C175.587 18.9758 176.835 20.0798 177.667 21.4878C178.531 22.8638 178.963 24.4318 178.963 26.1918C178.963 28.2078 178.435 29.9198 177.379 31.3278C176.355 32.7038 175.123 33.6318 173.683 34.1118V34.3038C175.539 34.8798 176.979 35.9038 178.003 37.3758C179.059 38.8478 179.587 40.7358 179.587 43.0398C179.587 44.9598 179.139 46.6718 178.243 48.1758C177.379 49.6798 176.083 50.8638 174.355 51.7278C172.659 52.5598 170.611 52.9758 168.211 52.9758C164.595 52.9758 161.651 52.0638 159.379 50.2398C157.107 48.4158 155.907 45.7278 155.779 42.1758H162.307C162.371 43.7438 162.899 45.0078 163.891 45.9678C164.915 46.8958 166.307 47.3598 168.067 47.3598C169.699 47.3598 170.947 46.9118 171.811 46.0158C172.707 45.0878 173.155 43.9038 173.155 42.4638C173.155 40.5438 172.547 39.1678 171.331 38.3358C170.115 37.5038 168.227 37.0878 165.667 37.0878H164.275V31.5678H165.667C170.211 31.5678 172.483 30.0478 172.483 27.0078C172.483 25.6318 172.067 24.5598 171.235 23.7918C170.435 23.0238 169.267 22.6398 167.731 22.6398C166.227 22.6398 165.059 23.0558 164.227 23.8878C163.427 24.6878 162.963 25.7118 162.835 26.9598H156.259ZM184.897 34.7838C184.897 29.2478 185.889 24.9118 187.873 21.7758C189.889 18.6398 193.217 17.0718 197.857 17.0718C202.497 17.0718 205.809 18.6398 207.793 21.7758C209.809 24.9118 210.817 29.2478 210.817 34.7838C210.817 40.3518 209.809 44.7198 207.793 47.8878C205.809 51.0558 202.497 52.6398 197.857 52.6398C193.217 52.6398 189.889 51.0558 187.873 47.8878C185.889 44.7198 184.897 40.3518 184.897 34.7838ZM204.193 34.7838C204.193 32.4158 204.033 30.4318 203.713 28.8318C203.425 27.1998 202.817 25.8718 201.889 24.8478C200.993 23.8238 199.649 23.3118 197.857 23.3118C196.065 23.3118 194.705 23.8238 193.777 24.8478C192.881 25.8718 192.273 27.1998 191.953 28.8318C191.665 30.4318 191.521 32.4158 191.521 34.7838C191.521 37.2158 191.665 39.2638 191.953 40.9278C192.241 42.5598 192.849 43.8878 193.777 44.9118C194.705 45.9038 196.065 46.3998 197.857 46.3998C199.649 46.3998 201.009 45.9038 201.937 44.9118C202.865 43.8878 203.473 42.5598 203.761 40.9278C204.049 39.2638 204.193 37.2158 204.193 34.7838Z" fill="white"/>
</svg>
