<svg width="264" height="113" viewBox="0 0 264 113" fill="none" xmlns="http://www.w3.org/2000/svg">
<path d="M60.1561 89.0208L57.7743 68.7327C57.4368 65.8591 56.1241 63.2156 54.0832 61.2994C52.0422 59.3832 49.4136 58.3263 46.6916 58.3274H38.4894C35.7686 58.3282 33.1418 59.386 31.1024 61.302C29.063 63.2181 27.7514 65.8604 27.4141 68.7327L25.0286 89.0208C24.8977 90.1354 24.9911 91.2669 25.3028 92.3402C25.6144 93.4134 26.1371 94.4039 26.8361 95.2457C27.5352 96.0875 28.3946 96.7615 29.3572 97.2229C30.3198 97.6842 31.3637 97.9224 32.4195 97.9216H52.7689C53.8244 97.9218 54.8678 97.6832 55.83 97.2216C56.7922 96.76 57.6511 96.086 58.3498 95.2442C59.0484 94.4024 59.5707 93.4122 59.8822 92.3392C60.1936 91.2663 60.287 90.1351 60.1561 89.0208V89.0208Z" stroke="white" stroke-width="6" stroke-linecap="round" stroke-linejoin="round"/>
<path d="M42.5941 42.4898C48.7601 42.4898 53.7587 37.1717 53.7587 30.6115C53.7587 24.0514 48.7601 18.7333 42.5941 18.7333C36.4281 18.7333 31.4295 24.0514 31.4295 30.6115C31.4295 37.1717 36.4281 42.4898 42.5941 42.4898Z" stroke="white" stroke-width="6"/>
<path d="M12.822 54.368C16.9327 54.368 20.2651 50.8226 20.2651 46.4491C20.2651 42.0757 16.9327 38.5303 12.822 38.5303C8.71134 38.5303 5.37897 42.0757 5.37897 46.4491C5.37897 50.8226 8.71134 54.368 12.822 54.368Z" stroke="white" stroke-width="6"/>
<path d="M72.3665 54.368C76.4771 54.368 79.8095 50.8226 79.8095 46.4491C79.8095 42.0757 76.4771 38.5303 72.3665 38.5303C68.2558 38.5303 64.9234 42.0757 64.9234 46.4491C64.9234 50.8226 68.2558 54.368 72.3665 54.368Z" stroke="white" stroke-width="6"/>
<path d="M12.822 66.2465H11.6832C9.92133 66.2462 8.21647 66.911 6.87196 68.1225C5.52746 69.334 4.6305 71.0136 4.34067 72.8626L3.1014 80.7815C2.92355 81.916 2.98015 83.0782 3.26726 84.1871C3.55437 85.296 4.06509 86.3251 4.76391 87.2027C5.46272 88.0804 6.33285 88.7855 7.31377 89.2691C8.2947 89.7527 9.36286 90.0031 10.444 90.003H23.9866" stroke="white" stroke-width="6" stroke-linecap="round" stroke-linejoin="round"/>
<path d="M72.3663 66.2465H73.5051C75.267 66.2462 76.9719 66.911 78.3164 68.1225C79.6609 69.334 80.5578 71.0136 80.8477 72.8626L82.0869 80.7815C82.2648 81.916 82.2082 83.0782 81.9211 84.1871C81.634 85.296 81.1233 86.3251 80.4244 87.2027C79.7256 88.0804 78.8555 88.7855 77.8746 89.2691C76.8937 89.7527 75.8255 90.0031 74.7444 90.003H61.2017" stroke="white" stroke-width="6" stroke-linecap="round" stroke-linejoin="round"/>
<path fill-rule="evenodd" clip-rule="evenodd" d="M251.964 6.73499C252.568 6.73499 253.148 6.97516 253.576 7.40268C254.003 7.83021 254.243 8.41005 254.243 9.01465V15.8537H261.082C261.687 15.8537 262.267 16.0938 262.694 16.5214C263.122 16.9489 263.362 17.5287 263.362 18.1333C263.362 18.7379 263.122 19.3178 262.694 19.7453C262.267 20.1728 261.687 20.413 261.082 20.413H254.243V27.252C254.243 27.8566 254.003 28.4364 253.576 28.864C253.148 29.2915 252.568 29.5317 251.964 29.5317C251.359 29.5317 250.779 29.2915 250.352 28.864C249.924 28.4364 249.684 27.8566 249.684 27.252V20.413H242.845C242.24 20.413 241.661 20.1728 241.233 19.7453C240.805 19.3178 240.565 18.7379 240.565 18.1333C240.565 17.5287 240.805 16.9489 241.233 16.5214C241.661 16.0938 242.24 15.8537 242.845 15.8537H249.684V9.01465C249.684 8.41005 249.924 7.83021 250.352 7.40268C250.779 6.97516 251.359 6.73499 251.964 6.73499Z" fill="white" fill-opacity="0.8"/>
<path d="M117.353 93.252C116.477 93.252 115.685 93.102 114.977 92.802C114.281 92.502 113.729 92.07 113.321 91.506C112.913 90.942 112.703 90.276 112.691 89.508H115.391C115.427 90.024 115.607 90.432 115.931 90.732C116.267 91.032 116.723 91.182 117.299 91.182C117.887 91.182 118.349 91.044 118.685 90.768C119.021 90.48 119.189 90.108 119.189 89.652C119.189 89.28 119.075 88.974 118.847 88.734C118.619 88.494 118.331 88.308 117.983 88.176C117.647 88.032 117.179 87.876 116.579 87.708C115.763 87.468 115.097 87.234 114.581 87.006C114.077 86.766 113.639 86.412 113.267 85.944C112.907 85.464 112.727 84.828 112.727 84.036C112.727 83.292 112.913 82.644 113.285 82.092C113.657 81.54 114.179 81.12 114.851 80.832C115.523 80.532 116.291 80.382 117.155 80.382C118.451 80.382 119.501 80.7 120.305 81.336C121.121 81.96 121.571 82.836 121.655 83.964H118.883C118.859 83.532 118.673 83.178 118.325 82.902C117.989 82.614 117.539 82.47 116.975 82.47C116.483 82.47 116.087 82.596 115.787 82.848C115.499 83.1 115.355 83.466 115.355 83.946C115.355 84.282 115.463 84.564 115.679 84.792C115.907 85.008 116.183 85.188 116.507 85.332C116.843 85.464 117.311 85.62 117.911 85.8C118.727 86.04 119.393 86.28 119.909 86.52C120.425 86.76 120.869 87.12 121.241 87.6C121.613 88.08 121.799 88.71 121.799 89.49C121.799 90.162 121.625 90.786 121.277 91.362C120.929 91.938 120.419 92.4 119.747 92.748C119.075 93.084 118.277 93.252 117.353 93.252ZM123.336 88.104C123.336 87.096 123.534 86.202 123.93 85.422C124.338 84.642 124.884 84.042 125.568 83.622C126.264 83.202 127.038 82.992 127.89 82.992C128.634 82.992 129.282 83.142 129.834 83.442C130.398 83.742 130.848 84.12 131.184 84.576V83.154H133.722V93.126H131.184V91.668C130.86 92.136 130.41 92.526 129.834 92.838C129.27 93.138 128.616 93.288 127.872 93.288C127.032 93.288 126.264 93.072 125.568 92.64C124.884 92.208 124.338 91.602 123.93 90.822C123.534 90.03 123.336 89.124 123.336 88.104ZM131.184 88.14C131.184 87.528 131.064 87.006 130.824 86.574C130.584 86.13 130.26 85.794 129.852 85.566C129.444 85.326 129.006 85.206 128.538 85.206C128.07 85.206 127.638 85.32 127.242 85.548C126.846 85.776 126.522 86.112 126.27 86.556C126.03 86.988 125.91 87.504 125.91 88.104C125.91 88.704 126.03 89.232 126.27 89.688C126.522 90.132 126.846 90.474 127.242 90.714C127.65 90.954 128.082 91.074 128.538 91.074C129.006 91.074 129.444 90.96 129.852 90.732C130.26 90.492 130.584 90.156 130.824 89.724C131.064 89.28 131.184 88.752 131.184 88.14ZM139.117 85.224V90.048C139.117 90.384 139.195 90.63 139.351 90.786C139.519 90.93 139.795 91.002 140.179 91.002H141.349V93.126H139.765C137.641 93.126 136.579 92.094 136.579 90.03V85.224H135.391V83.154H136.579V80.688H139.117V83.154H141.349V85.224H139.117ZM144.44 81.966C143.996 81.966 143.624 81.828 143.324 81.552C143.036 81.264 142.892 80.91 142.892 80.49C142.892 80.07 143.036 79.722 143.324 79.446C143.624 79.158 143.996 79.014 144.44 79.014C144.884 79.014 145.25 79.158 145.538 79.446C145.838 79.722 145.988 80.07 145.988 80.49C145.988 80.91 145.838 81.264 145.538 81.552C145.25 81.828 144.884 81.966 144.44 81.966ZM145.682 83.154V93.126H143.162V83.154H145.682ZM151.988 93.288C151.172 93.288 150.44 93.144 149.792 92.856C149.144 92.556 148.628 92.154 148.244 91.65C147.872 91.146 147.668 90.588 147.632 89.976H150.17C150.218 90.36 150.404 90.678 150.728 90.93C151.064 91.182 151.478 91.308 151.97 91.308C152.45 91.308 152.822 91.212 153.086 91.02C153.362 90.828 153.5 90.582 153.5 90.282C153.5 89.958 153.332 89.718 152.996 89.562C152.672 89.394 152.15 89.214 151.43 89.022C150.686 88.842 150.074 88.656 149.594 88.464C149.126 88.272 148.718 87.978 148.37 87.582C148.034 87.186 147.866 86.652 147.866 85.98C147.866 85.428 148.022 84.924 148.334 84.468C148.658 84.012 149.114 83.652 149.702 83.388C150.302 83.124 151.004 82.992 151.808 82.992C152.996 82.992 153.944 83.292 154.652 83.892C155.36 84.48 155.75 85.278 155.822 86.286H153.41C153.374 85.89 153.206 85.578 152.906 85.35C152.618 85.11 152.228 84.99 151.736 84.99C151.28 84.99 150.926 85.074 150.674 85.242C150.434 85.41 150.314 85.644 150.314 85.944C150.314 86.28 150.482 86.538 150.818 86.718C151.154 86.886 151.676 87.06 152.384 87.24C153.104 87.42 153.698 87.606 154.166 87.798C154.634 87.99 155.036 88.29 155.372 88.698C155.72 89.094 155.9 89.622 155.912 90.282C155.912 90.858 155.75 91.374 155.426 91.83C155.114 92.286 154.658 92.646 154.058 92.91C153.47 93.162 152.78 93.288 151.988 93.288ZM162.552 85.224H160.806V93.126H158.25V85.224H157.116V83.154H158.25V82.65C158.25 81.426 158.598 80.526 159.294 79.95C159.99 79.374 161.04 79.104 162.444 79.14V81.264C161.832 81.252 161.406 81.354 161.166 81.57C160.926 81.786 160.806 82.176 160.806 82.74V83.154H162.552V85.224ZM165.463 81.966C165.019 81.966 164.647 81.828 164.347 81.552C164.059 81.264 163.915 80.91 163.915 80.49C163.915 80.07 164.059 79.722 164.347 79.446C164.647 79.158 165.019 79.014 165.463 79.014C165.907 79.014 166.273 79.158 166.561 79.446C166.861 79.722 167.011 80.07 167.011 80.49C167.011 80.91 166.861 81.264 166.561 81.552C166.273 81.828 165.907 81.966 165.463 81.966ZM166.705 83.154V93.126H164.185V83.154H166.705ZM178.465 87.924C178.465 88.284 178.441 88.608 178.393 88.896H171.103C171.163 89.616 171.415 90.18 171.859 90.588C172.303 90.996 172.849 91.2 173.497 91.2C174.433 91.2 175.099 90.798 175.495 89.994H178.213C177.925 90.954 177.373 91.746 176.557 92.37C175.741 92.982 174.739 93.288 173.551 93.288C172.591 93.288 171.727 93.078 170.959 92.658C170.203 92.226 169.609 91.62 169.177 90.84C168.757 90.06 168.547 89.16 168.547 88.14C168.547 87.108 168.757 86.202 169.177 85.422C169.597 84.642 170.185 84.042 170.941 83.622C171.697 83.202 172.567 82.992 173.551 82.992C174.499 82.992 175.345 83.196 176.089 83.604C176.845 84.012 177.427 84.594 177.835 85.35C178.255 86.094 178.465 86.952 178.465 87.924ZM175.855 87.204C175.843 86.556 175.609 86.04 175.153 85.656C174.697 85.26 174.139 85.062 173.479 85.062C172.855 85.062 172.327 85.254 171.895 85.638C171.475 86.01 171.217 86.532 171.121 87.204H175.855ZM179.656 88.104C179.656 87.096 179.854 86.202 180.25 85.422C180.658 84.642 181.21 84.042 181.906 83.622C182.602 83.202 183.376 82.992 184.228 82.992C184.876 82.992 185.494 83.136 186.082 83.424C186.67 83.7 187.138 84.072 187.486 84.54V79.806H190.042V93.126H187.486V91.65C187.174 92.142 186.736 92.538 186.172 92.838C185.608 93.138 184.954 93.288 184.21 93.288C183.37 93.288 182.602 93.072 181.906 92.64C181.21 92.208 180.658 91.602 180.25 90.822C179.854 90.03 179.656 89.124 179.656 88.104ZM187.504 88.14C187.504 87.528 187.384 87.006 187.144 86.574C186.904 86.13 186.58 85.794 186.172 85.566C185.764 85.326 185.326 85.206 184.858 85.206C184.39 85.206 183.958 85.32 183.562 85.548C183.166 85.776 182.842 86.112 182.59 86.556C182.35 86.988 182.23 87.504 182.23 88.104C182.23 88.704 182.35 89.232 182.59 89.688C182.842 90.132 183.166 90.474 183.562 90.714C183.97 90.954 184.402 91.074 184.858 91.074C185.326 91.074 185.764 90.96 186.172 90.732C186.58 90.492 186.904 90.156 187.144 89.724C187.384 89.28 187.504 88.752 187.504 88.14ZM196.181 86.826C196.181 85.59 196.457 84.486 197.009 83.514C197.573 82.53 198.335 81.768 199.295 81.228C200.267 80.676 201.353 80.4 202.553 80.4C203.957 80.4 205.187 80.76 206.243 81.48C207.299 82.2 208.037 83.196 208.457 84.468H205.559C205.271 83.868 204.863 83.418 204.335 83.118C203.819 82.818 203.219 82.668 202.535 82.668C201.803 82.668 201.149 82.842 200.573 83.19C200.009 83.526 199.565 84.006 199.241 84.63C198.929 85.254 198.773 85.986 198.773 86.826C198.773 87.654 198.929 88.386 199.241 89.022C199.565 89.646 200.009 90.132 200.573 90.48C201.149 90.816 201.803 90.984 202.535 90.984C203.219 90.984 203.819 90.834 204.335 90.534C204.863 90.222 205.271 89.766 205.559 89.166H208.457C208.037 90.45 207.299 91.452 206.243 92.172C205.199 92.88 203.969 93.234 202.553 93.234C201.353 93.234 200.267 92.964 199.295 92.424C198.335 91.872 197.573 91.11 197.009 90.138C196.457 89.166 196.181 88.062 196.181 86.826ZM213.129 79.806V93.126H210.609V79.806H213.129ZM216.897 81.966C216.453 81.966 216.081 81.828 215.781 81.552C215.493 81.264 215.349 80.91 215.349 80.49C215.349 80.07 215.493 79.722 215.781 79.446C216.081 79.158 216.453 79.014 216.897 79.014C217.341 79.014 217.707 79.158 217.995 79.446C218.295 79.722 218.445 80.07 218.445 80.49C218.445 80.91 218.295 81.264 217.995 81.552C217.707 81.828 217.341 81.966 216.897 81.966ZM218.139 83.154V93.126H215.619V83.154H218.139ZM229.899 87.924C229.899 88.284 229.875 88.608 229.827 88.896H222.537C222.597 89.616 222.849 90.18 223.293 90.588C223.737 90.996 224.283 91.2 224.931 91.2C225.867 91.2 226.533 90.798 226.929 89.994H229.647C229.359 90.954 228.807 91.746 227.991 92.37C227.175 92.982 226.173 93.288 224.985 93.288C224.025 93.288 223.161 93.078 222.393 92.658C221.637 92.226 221.043 91.62 220.611 90.84C220.191 90.06 219.981 89.16 219.981 88.14C219.981 87.108 220.191 86.202 220.611 85.422C221.031 84.642 221.619 84.042 222.375 83.622C223.131 83.202 224.001 82.992 224.985 82.992C225.933 82.992 226.779 83.196 227.523 83.604C228.279 84.012 228.861 84.594 229.269 85.35C229.689 86.094 229.899 86.952 229.899 87.924ZM227.289 87.204C227.277 86.556 227.043 86.04 226.587 85.656C226.131 85.26 225.573 85.062 224.913 85.062C224.289 85.062 223.761 85.254 223.329 85.638C222.909 86.01 222.651 86.532 222.555 87.204H227.289ZM237.264 83.01C238.452 83.01 239.412 83.388 240.144 84.144C240.876 84.888 241.242 85.932 241.242 87.276V93.126H238.722V87.618C238.722 86.826 238.524 86.22 238.128 85.8C237.732 85.368 237.192 85.152 236.508 85.152C235.812 85.152 235.26 85.368 234.852 85.8C234.456 86.22 234.258 86.826 234.258 87.618V93.126H231.738V83.154H234.258V84.396C234.594 83.964 235.02 83.628 235.536 83.388C236.064 83.136 236.64 83.01 237.264 83.01ZM246.572 85.224V90.048C246.572 90.384 246.65 90.63 246.806 90.786C246.974 90.93 247.25 91.002 247.634 91.002H248.804V93.126H247.22C245.096 93.126 244.034 92.094 244.034 90.03V85.224H242.846V83.154H244.034V80.688H246.572V83.154H248.804V85.224H246.572Z" fill="#E7E7E7"/>
<path d="M144.474 23.9358V17.7438H156.042V52.7358H149.13V23.9358H144.474ZM164.793 45.1518C167.865 42.5918 170.313 40.4638 172.137 38.7678C173.961 37.0398 175.481 35.2478 176.697 33.3918C177.913 31.5358 178.521 29.7118 178.521 27.9198C178.521 26.2878 178.137 25.0078 177.369 24.0798C176.601 23.1518 175.417 22.6878 173.817 22.6878C172.217 22.6878 170.985 23.2318 170.121 24.3198C169.257 25.3758 168.809 26.8318 168.777 28.6878H162.249C162.377 24.8478 163.513 21.9358 165.657 19.9518C167.833 17.9678 170.585 16.9758 173.913 16.9758C177.561 16.9758 180.361 17.9518 182.313 19.9038C184.265 21.8238 185.241 24.3678 185.241 27.5358C185.241 30.0318 184.569 32.4158 183.225 34.6878C181.881 36.9598 180.345 38.9438 178.617 40.6398C176.889 42.3038 174.633 44.3198 171.849 46.6878H186.009V52.2558H162.297V47.2638L164.793 45.1518ZM208.387 26.4798C208.067 25.1358 207.507 24.1278 206.707 23.4558C205.939 22.7838 204.819 22.4478 203.347 22.4478C201.139 22.4478 199.507 23.3438 198.451 25.1358C197.427 26.8958 196.899 29.7758 196.867 33.7758C197.635 32.4958 198.755 31.5038 200.227 30.7998C201.699 30.0638 203.299 29.6958 205.027 29.6958C207.107 29.6958 208.947 30.1438 210.547 31.0398C212.147 31.9358 213.395 33.2478 214.291 34.9758C215.187 36.6718 215.635 38.7198 215.635 41.1198C215.635 43.3918 215.171 45.4238 214.243 47.2158C213.347 48.9758 212.019 50.3518 210.259 51.3438C208.499 52.3358 206.403 52.8318 203.971 52.8318C200.643 52.8318 198.019 52.0958 196.099 50.6238C194.211 49.1518 192.883 47.1038 192.115 44.4798C191.379 41.8238 191.011 38.5598 191.011 34.6878C191.011 28.8318 192.019 24.4158 194.035 21.4398C196.051 18.4318 199.235 16.9278 203.587 16.9278C206.947 16.9278 209.555 17.8398 211.411 19.6638C213.267 21.4878 214.339 23.7598 214.627 26.4798H208.387ZM203.491 35.2158C201.795 35.2158 200.371 35.7118 199.219 36.7038C198.067 37.6958 197.491 39.1358 197.491 41.0238C197.491 42.9118 198.019 44.3998 199.075 45.4878C200.163 46.5758 201.683 47.1198 203.635 47.1198C205.363 47.1198 206.723 46.5918 207.715 45.5358C208.739 44.4798 209.251 43.0558 209.251 41.2638C209.251 39.4078 208.755 37.9358 207.763 36.8478C206.803 35.7598 205.379 35.2158 203.491 35.2158Z" fill="white"/>
</svg>
