<svg width="84" height="84" viewBox="0 0 84 84" fill="none" xmlns="http://www.w3.org/2000/svg">
<path id="Vector" d="M42 37.5691C47.5254 37.5691 52.8244 39.764 56.7314 43.671C60.6384 47.578 62.8334 52.8771 62.8334 58.4024V83.4024H54.5V58.4024C54.5002 55.214 53.282 52.1461 51.0947 49.8263C48.9074 47.5066 45.9163 46.1103 42.7334 45.9233L42 45.9024C38.8117 45.9022 35.7437 47.1204 33.424 49.3078C31.1042 51.4951 29.7079 54.4862 29.5209 57.6691L29.5 58.4024V83.4024H21.1667V58.4024C21.1667 52.8771 23.3616 47.578 27.2686 43.671C31.1757 39.764 36.4747 37.5691 42 37.5691ZM14.9167 50.0691C16.0792 50.0691 17.2084 50.2066 18.2917 50.4608C17.5793 52.5816 17.1574 54.7892 17.0375 57.0233L17 58.4024V58.7608C16.5211 58.5894 16.0229 58.4774 15.5167 58.4274L14.9167 58.4024C13.363 58.4025 11.8651 58.9813 10.715 60.0258C9.56485 61.0704 8.84503 62.5059 8.69587 64.0524L8.66671 64.6524V83.4024H0.333374V64.6524C0.333374 60.7847 1.86983 57.0754 4.60473 54.3405C7.33964 51.6055 11.049 50.0691 14.9167 50.0691ZM69.0834 50.0691C72.9511 50.0691 76.6604 51.6055 79.3953 54.3405C82.1303 57.0754 83.6667 60.7847 83.6667 64.6524V83.4024H75.3334V64.6524C75.3333 63.0987 74.7545 61.6008 73.71 60.4507C72.6654 59.3006 71.2299 58.5807 69.6834 58.4316L69.0834 58.4024C68.3542 58.4024 67.6542 58.5274 67 58.7566V58.4024C67 55.6274 66.55 52.9608 65.7125 50.4691C66.8162 50.2019 67.9478 50.0676 69.0834 50.0691ZM14.9167 25.0691C17.6794 25.0691 20.3289 26.1666 22.2824 28.1201C24.2359 30.0736 25.3334 32.7231 25.3334 35.4858C25.3334 38.2484 24.2359 40.8979 22.2824 42.8515C20.3289 44.805 17.6794 45.9024 14.9167 45.9024C12.154 45.9024 9.50452 44.805 7.55101 42.8515C5.59751 40.8979 4.50004 38.2484 4.50004 35.4858C4.50004 32.7231 5.59751 30.0736 7.55101 28.1201C9.50452 26.1666 12.154 25.0691 14.9167 25.0691ZM69.0834 25.0691C71.846 25.0691 74.4956 26.1666 76.4491 28.1201C78.4026 30.0736 79.5 32.7231 79.5 35.4858C79.5 38.2484 78.4026 40.8979 76.4491 42.8515C74.4956 44.805 71.846 45.9024 69.0834 45.9024C66.3207 45.9024 63.6712 44.805 61.7177 42.8515C59.7642 40.8979 58.6667 38.2484 58.6667 35.4858C58.6667 32.7231 59.7642 30.0736 61.7177 28.1201C63.6712 26.1666 66.3207 25.0691 69.0834 25.0691ZM14.9167 33.4024C14.3642 33.4024 13.8343 33.6219 13.4436 34.0126C13.0529 34.4033 12.8334 34.9332 12.8334 35.4858C12.8334 36.0383 13.0529 36.5682 13.4436 36.9589C13.8343 37.3496 14.3642 37.5691 14.9167 37.5691C15.4692 37.5691 15.9991 37.3496 16.3898 36.9589C16.7805 36.5682 17 36.0383 17 35.4858C17 34.9332 16.7805 34.4033 16.3898 34.0126C15.9991 33.6219 15.4692 33.4024 14.9167 33.4024ZM69.0834 33.4024C68.5308 33.4024 68.0009 33.6219 67.6102 34.0126C67.2195 34.4033 67 34.9332 67 35.4858C67 36.0383 67.2195 36.5682 67.6102 36.9589C68.0009 37.3496 68.5308 37.5691 69.0834 37.5691C69.6359 37.5691 70.1658 37.3496 70.5565 36.9589C70.9472 36.5682 71.1667 36.0383 71.1667 35.4858C71.1667 34.9332 70.9472 34.4033 70.5565 34.0126C70.1658 33.6219 69.6359 33.4024 69.0834 33.4024ZM42 0.0690918C46.4203 0.0690918 50.6595 1.82504 53.7852 4.95065C56.9108 8.07625 58.6667 12.3155 58.6667 16.7358C58.6667 21.156 56.9108 25.3953 53.7852 28.5209C50.6595 31.6465 46.4203 33.4024 42 33.4024C37.5798 33.4024 33.3405 31.6465 30.2149 28.5209C27.0893 25.3953 25.3334 21.156 25.3334 16.7358C25.3334 12.3155 27.0893 8.07625 30.2149 4.95065C33.3405 1.82504 37.5798 0.0690918 42 0.0690918ZM42 8.40242C39.7899 8.40242 37.6703 9.2804 36.1075 10.8432C34.5447 12.406 33.6667 14.5256 33.6667 16.7358C33.6667 18.9459 34.5447 21.0655 36.1075 22.6283C37.6703 24.1911 39.7899 25.0691 42 25.0691C44.2102 25.0691 46.3298 24.1911 47.8926 22.6283C49.4554 21.0655 50.3334 18.9459 50.3334 16.7358C50.3334 14.5256 49.4554 12.406 47.8926 10.8432C46.3298 9.2804 44.2102 8.40242 42 8.40242Z" fill="black"/>
</svg>
