<svg width="84" height="84" viewBox="0 0 84 84" fill="none" xmlns="http://www.w3.org/2000/svg">
<path d="M79.1666 1.6525C74.4889 0.604868 69.7103 0.0739095 64.9166 0.0691663C60.3895 -0.218276 55.8502 0.392076 51.5598 1.86512C47.2694 3.33817 43.3125 5.64484 39.9166 8.6525C35.4444 13.1247 31.0139 17.5831 26.625 22.0275C21.5833 21.4858 9.62497 21.1942 1.62497 29.2775C0.848921 30.0582 0.41333 31.1142 0.41333 32.215C0.41333 33.3158 0.848921 34.3718 1.62497 35.1525L48.7083 82.3192C49.489 83.0952 50.545 83.5308 51.6458 83.5308C52.7466 83.5308 53.8026 83.0952 54.5833 82.3192C62.7083 73.9858 62.4583 62.2358 61.9583 57.3192L75.3333 43.9858C88.625 30.6942 82.5833 5.73583 82.3333 4.69417C82.141 3.94264 81.7426 3.25975 81.1831 2.72236C80.6237 2.18498 79.9253 1.81445 79.1666 1.6525ZM69.3333 38.1108L54.5 52.8608C54.0196 53.3459 53.6658 53.9416 53.4696 54.5955C53.2734 55.2494 53.2409 55.9414 53.375 56.6108C54.2751 62.185 53.4917 67.901 51.125 73.0275L10.8333 32.6525C16.041 30.2557 21.8625 29.528 27.5 30.5692C28.167 30.656 28.845 30.5801 29.4763 30.3479C30.1076 30.1157 30.6732 29.7342 31.125 29.2358C31.125 29.2358 36.9583 23.1942 45.75 14.4025C51.1559 10.0613 58.0003 7.91873 64.9166 8.4025C68.1699 8.41862 71.4165 8.6973 74.625 9.23583C75.625 15.1942 77.2083 30.2358 69.3333 38.1108Z" fill="black"/>
<path d="M57.5416 34.6525C62.144 34.6525 65.8749 30.9215 65.8749 26.3192C65.8749 21.7168 62.144 17.9858 57.5416 17.9858C52.9392 17.9858 49.2083 21.7168 49.2083 26.3192C49.2083 30.9215 52.9392 34.6525 57.5416 34.6525Z" fill="black"/>
<path d="M12.8333 58.4025C4.5 62.5692 4.5 79.2359 4.5 79.2359C12.2128 79.0158 19.5965 76.0623 25.3333 70.9025L12.8333 58.4025Z" fill="black"/>
</svg>
