<svg width="84" height="77" viewBox="0 0 84 77" fill="none" xmlns="http://www.w3.org/2000/svg">
<path d="M82.3906 68.814H8.48438V1.78271C8.48438 1.31006 8.09766 0.92334 7.625 0.92334H1.60938C1.13672 0.92334 0.75 1.31006 0.75 1.78271V75.689C0.75 76.1616 1.13672 76.5483 1.60938 76.5483H82.3906C82.8633 76.5483 83.25 76.1616 83.25 75.689V69.6733C83.25 69.2007 82.8633 68.814 82.3906 68.814ZM19.8496 52.2388C20.1826 52.5718 20.7197 52.5718 21.0635 52.2388L35.9199 37.4575L49.627 51.2505C49.96 51.5835 50.5078 51.5835 50.8408 51.2505L80.4248 21.6772C80.7578 21.3442 80.7578 20.7964 80.4248 20.4634L76.1709 16.2095C76.0094 16.0495 75.7913 15.9598 75.564 15.9598C75.3367 15.9598 75.1185 16.0495 74.957 16.2095L50.25 40.9058L36.5645 27.1343C36.4029 26.9743 36.1848 26.8846 35.9575 26.8846C35.7302 26.8846 35.5121 26.9743 35.3506 27.1343L15.6064 46.7603C15.4465 46.9218 15.3568 47.1399 15.3568 47.3672C15.3568 47.5945 15.4465 47.8126 15.6064 47.9741L19.8496 52.2388Z" fill="black"/>
</svg>
