<svg width="60" height="13" viewBox="0 0 60 13" fill="none" xmlns="http://www.w3.org/2000/svg">
<path d="M6.20672 9.44078L8.5711 10.9385C8.87335 11.1298 9.24835 10.8452 9.15872 10.4923L8.47585 7.80541C8.45656 7.73057 8.45878 7.6518 8.48227 7.57816C8.50575 7.50453 8.54954 7.43902 8.6086 7.38916L10.7288 5.62478C11.0071 5.39303 10.8638 4.93066 10.5057 4.90741L7.7371 4.72741C7.66255 4.72212 7.59105 4.69577 7.5309 4.65142C7.47075 4.60707 7.42444 4.54656 7.39735 4.47691L6.3646 1.87666C6.33648 1.80276 6.28656 1.73916 6.22146 1.69428C6.15636 1.6494 6.07916 1.62537 6.0001 1.62537C5.92103 1.62537 5.84383 1.6494 5.77873 1.69428C5.71364 1.73916 5.66372 1.80276 5.6356 1.87666L4.60285 4.47691C4.57581 4.54663 4.52952 4.60722 4.46937 4.65164C4.40922 4.69606 4.33768 4.72246 4.2631 4.72778L1.49447 4.90778C1.13672 4.93066 0.992723 5.39303 1.27135 5.62478L3.3916 7.38953C3.45059 7.43936 3.49434 7.50481 3.51782 7.57837C3.5413 7.65193 3.54356 7.73062 3.52435 7.80541L2.89135 10.2973C2.78372 10.7207 3.2341 11.0623 3.59635 10.8324L5.79385 9.44078C5.85561 9.40152 5.92728 9.38066 6.00047 9.38066C6.07366 9.38066 6.14533 9.40152 6.2071 9.44078H6.20672Z" fill="#FF8A00"/>
<path d="M18.2067 9.44078L20.5711 10.9385C20.8733 11.1298 21.2483 10.8452 21.1587 10.4923L20.4758 7.80541C20.4566 7.73057 20.4588 7.6518 20.4823 7.57816C20.5057 7.50453 20.5495 7.43902 20.6086 7.38916L22.7288 5.62478C23.0071 5.39303 22.8638 4.93066 22.5057 4.90741L19.7371 4.72741C19.6626 4.72212 19.591 4.69577 19.5309 4.65142C19.4708 4.60707 19.4244 4.54656 19.3973 4.47691L18.3646 1.87666C18.3365 1.80276 18.2866 1.73916 18.2215 1.69428C18.1564 1.6494 18.0792 1.62537 18.0001 1.62537C17.921 1.62537 17.8438 1.6494 17.7787 1.69428C17.7136 1.73916 17.6637 1.80276 17.6356 1.87666L16.6028 4.47691C16.5758 4.54663 16.5295 4.60722 16.4694 4.65164C16.4092 4.69606 16.3377 4.72246 16.2631 4.72778L13.4945 4.90778C13.1367 4.93066 12.9927 5.39303 13.2713 5.62478L15.3916 7.38953C15.4506 7.43936 15.4943 7.50481 15.5178 7.57837C15.5413 7.65193 15.5436 7.73062 15.5243 7.80541L14.8913 10.2973C14.7837 10.7207 15.2341 11.0623 15.5963 10.8324L17.7938 9.44078C17.8556 9.40152 17.9273 9.38066 18.0005 9.38066C18.0737 9.38066 18.1453 9.40152 18.2071 9.44078H18.2067Z" fill="#FF8A00"/>
<path d="M30.2067 9.44078L32.5711 10.9385C32.8733 11.1298 33.2483 10.8452 33.1587 10.4923L32.4758 7.80541C32.4566 7.73057 32.4588 7.6518 32.4823 7.57816C32.5057 7.50453 32.5495 7.43902 32.6086 7.38916L34.7288 5.62478C35.0071 5.39303 34.8638 4.93066 34.5057 4.90741L31.7371 4.72741C31.6626 4.72212 31.591 4.69577 31.5309 4.65142C31.4708 4.60707 31.4244 4.54656 31.3973 4.47691L30.3646 1.87666C30.3365 1.80276 30.2866 1.73916 30.2215 1.69428C30.1564 1.6494 30.0792 1.62537 30.0001 1.62537C29.921 1.62537 29.8438 1.6494 29.7787 1.69428C29.7136 1.73916 29.6637 1.80276 29.6356 1.87666L28.6028 4.47691C28.5758 4.54663 28.5295 4.60722 28.4694 4.65164C28.4092 4.69606 28.3377 4.72246 28.2631 4.72778L25.4945 4.90778C25.1367 4.93066 24.9927 5.39303 25.2713 5.62478L27.3916 7.38953C27.4506 7.43936 27.4943 7.50481 27.5178 7.57837C27.5413 7.65193 27.5436 7.73062 27.5243 7.80541L26.8913 10.2973C26.7837 10.7207 27.2341 11.0623 27.5963 10.8324L29.7938 9.44078C29.8556 9.40152 29.9273 9.38066 30.0005 9.38066C30.0737 9.38066 30.1453 9.40152 30.2071 9.44078H30.2067Z" fill="#FF8A00"/>
<path d="M42.2067 9.44078L44.5711 10.9385C44.8733 11.1298 45.2483 10.8452 45.1587 10.4923L44.4758 7.80541C44.4566 7.73057 44.4588 7.6518 44.4823 7.57816C44.5057 7.50453 44.5495 7.43902 44.6086 7.38916L46.7288 5.62478C47.0071 5.39303 46.8638 4.93066 46.5057 4.90741L43.7371 4.72741C43.6626 4.72212 43.591 4.69577 43.5309 4.65142C43.4708 4.60707 43.4244 4.54656 43.3973 4.47691L42.3646 1.87666C42.3365 1.80276 42.2866 1.73916 42.2215 1.69428C42.1564 1.6494 42.0792 1.62537 42.0001 1.62537C41.921 1.62537 41.8438 1.6494 41.7787 1.69428C41.7136 1.73916 41.6637 1.80276 41.6356 1.87666L40.6028 4.47691C40.5758 4.54663 40.5295 4.60722 40.4694 4.65164C40.4092 4.69606 40.3377 4.72246 40.2631 4.72778L37.4945 4.90778C37.1367 4.93066 36.9927 5.39303 37.2713 5.62478L39.3916 7.38953C39.4506 7.43936 39.4943 7.50481 39.5178 7.57837C39.5413 7.65193 39.5436 7.73062 39.5243 7.80541L38.8913 10.2973C38.7837 10.7207 39.2341 11.0623 39.5963 10.8324L41.7938 9.44078C41.8556 9.40152 41.9273 9.38066 42.0005 9.38066C42.0737 9.38066 42.1453 9.40152 42.2071 9.44078H42.2067Z" fill="#FF8A00"/>
<path d="M54.2067 9.44078L56.5711 10.9385C56.8733 11.1298 57.2483 10.8452 57.1587 10.4923L56.4758 7.80541C56.4566 7.73057 56.4588 7.6518 56.4823 7.57816C56.5057 7.50453 56.5495 7.43902 56.6086 7.38916L58.7288 5.62478C59.0071 5.39303 58.8638 4.93066 58.5057 4.90741L55.7371 4.72741C55.6626 4.72212 55.591 4.69577 55.5309 4.65142C55.4708 4.60707 55.4244 4.54656 55.3973 4.47691L54.3646 1.87666C54.3365 1.80276 54.2866 1.73916 54.2215 1.69428C54.1564 1.6494 54.0792 1.62537 54.0001 1.62537C53.921 1.62537 53.8438 1.6494 53.7787 1.69428C53.7136 1.73916 53.6637 1.80276 53.6356 1.87666L52.6028 4.47691C52.5758 4.54663 52.5295 4.60722 52.4694 4.65164C52.4092 4.69606 52.3377 4.72246 52.2631 4.72778L49.4945 4.90778C49.1367 4.93066 48.9927 5.39303 49.2713 5.62478L51.3916 7.38953C51.4506 7.43936 51.4943 7.50481 51.5178 7.57837C51.5413 7.65193 51.5436 7.73062 51.5243 7.80541L50.8913 10.2973C50.7837 10.7207 51.2341 11.0623 51.5963 10.8324L53.7938 9.44078C53.8556 9.40152 53.9273 9.38066 54.0005 9.38066C54.0737 9.38066 54.1453 9.40152 54.2071 9.44078H54.2067Z" fill="#CCCCCC"/>
</svg>
