<svg width="105" height="80" viewBox="0 0 105 80" fill="none" xmlns="http://www.w3.org/2000/svg">
<path d="M56.0725 0.733398L53.0295 6.2154L31.2676 45.3687L24.8746 39.0413L22.6723 42.6674L3.11939 74.922L0.0930176 79.9218H104.478L102.482 75.315L92.4724 52.1981L90.5304 47.7167L83.6302 54.5461L58.9287 6.31447L56.0759 0.733398H56.0725ZM55.8289 14.8743L65.9725 34.6755L63.3899 36.8683L55.7822 30.4187L48.1779 36.8683L45.0748 34.2297L55.8289 14.8743ZM55.7856 39.114L63.3932 45.5636L69.0722 40.7421L79.7496 61.5968L81.825 65.6686L88.2715 59.2884L94.3443 73.317H11.8748C16.6463 65.4408 21.4244 57.5645 26.1992 49.6916L32.8325 56.2568L34.9747 52.4062C37.247 48.3178 39.5226 44.2327 41.7915 40.1443L48.1779 45.5603L55.7856 39.114Z" fill="white"/>
</svg>
