<svg width="86" height="86" viewBox="0 0 86 86" fill="none" xmlns="http://www.w3.org/2000/svg">
<path d="M60.1561 74.0208L57.7743 53.7327C57.4368 50.8591 56.1241 48.2156 54.0832 46.2994C52.0422 44.3832 49.4136 43.3263 46.6916 43.3274H38.4894C35.7686 43.3282 33.1418 44.386 31.1024 46.302C29.063 48.2181 27.7514 50.8604 27.4141 53.7327L25.0286 74.0208C24.8977 75.1354 24.9911 76.2669 25.3028 77.3402C25.6144 78.4134 26.1371 79.4039 26.8361 80.2457C27.5352 81.0875 28.3946 81.7615 29.3572 82.2229C30.3198 82.6842 31.3637 82.9224 32.4195 82.9216H52.7689C53.8244 82.9218 54.8678 82.6832 55.83 82.2216C56.7922 81.76 57.6511 81.086 58.3498 80.2442C59.0484 79.4024 59.5707 78.4122 59.8822 77.3392C60.1936 76.2663 60.287 75.1351 60.1561 74.0208V74.0208Z" stroke="white" stroke-width="6" stroke-linecap="round" stroke-linejoin="round"/>
<path d="M42.5941 27.4898C48.7601 27.4898 53.7587 22.1717 53.7587 15.6115C53.7587 9.05135 48.7601 3.73328 42.5941 3.73328C36.4281 3.73328 31.4295 9.05135 31.4295 15.6115C31.4295 22.1717 36.4281 27.4898 42.5941 27.4898Z" stroke="white" stroke-width="6"/>
<path d="M12.822 39.368C16.9327 39.368 20.2651 35.8226 20.2651 31.4491C20.2651 27.0757 16.9327 23.5303 12.822 23.5303C8.71134 23.5303 5.37897 27.0757 5.37897 31.4491C5.37897 35.8226 8.71134 39.368 12.822 39.368Z" stroke="white" stroke-width="6"/>
<path d="M72.3665 39.368C76.4771 39.368 79.8095 35.8226 79.8095 31.4491C79.8095 27.0757 76.4771 23.5303 72.3665 23.5303C68.2558 23.5303 64.9234 27.0757 64.9234 31.4491C64.9234 35.8226 68.2558 39.368 72.3665 39.368Z" stroke="white" stroke-width="6"/>
<path d="M12.822 51.2465H11.6832C9.92133 51.2462 8.21647 51.911 6.87196 53.1225C5.52746 54.334 4.6305 56.0136 4.34067 57.8626L3.1014 65.7815C2.92355 66.916 2.98015 68.0782 3.26726 69.1871C3.55437 70.296 4.06509 71.3251 4.76391 72.2027C5.46272 73.0804 6.33285 73.7855 7.31377 74.2691C8.2947 74.7527 9.36286 75.0031 10.444 75.003H23.9866" stroke="white" stroke-width="6" stroke-linecap="round" stroke-linejoin="round"/>
<path d="M72.3663 51.2465H73.5051C75.267 51.2462 76.9719 51.911 78.3164 53.1225C79.6609 54.334 80.5578 56.0136 80.8477 57.8626L82.0869 65.7815C82.2648 66.916 82.2082 68.0782 81.9211 69.1871C81.634 70.296 81.1233 71.3251 80.4244 72.2027C79.7256 73.0804 78.8555 73.7855 77.8746 74.2691C76.8937 74.7527 75.8255 75.0031 74.7444 75.003H61.2017" stroke="white" stroke-width="6" stroke-linecap="round" stroke-linejoin="round"/>
</svg>
