<svg width="24" height="24" viewBox="0 0 24 24" fill="none" xmlns="http://www.w3.org/2000/svg">
<path fill-rule="evenodd" clip-rule="evenodd" d="M11.9636 0.734985C12.5682 0.734985 13.1481 0.975164 13.5756 1.40268C14.0031 1.83021 14.2433 2.41005 14.2433 3.01465V9.85365H21.0823C21.6869 9.85365 22.2668 10.0938 22.6943 10.5214C23.1218 10.9489 23.362 11.5287 23.362 12.1333C23.362 12.7379 23.1218 13.3178 22.6943 13.7453C22.2668 14.1728 21.6869 14.413 21.0823 14.413H14.2433V21.252C14.2433 21.8566 14.0031 22.4364 13.5756 22.864C13.1481 23.2915 12.5682 23.5317 11.9636 23.5317C11.359 23.5317 10.7792 23.2915 10.3517 22.864C9.92415 22.4364 9.68398 21.8566 9.68398 21.252V14.413H2.84497C2.24037 14.413 1.66053 14.1728 1.233 13.7453C0.805484 13.3178 0.565308 12.7379 0.565308 12.1333C0.565308 11.5287 0.805484 10.9489 1.233 10.5214C1.66053 10.0938 2.24037 9.85365 2.84497 9.85365H9.68398V3.01465C9.68398 2.41005 9.92415 1.83021 10.3517 1.40268C10.7792 0.975164 11.359 0.734985 11.9636 0.734985Z" fill="white" fill-opacity="0.8"/>
</svg>
